<?xml version="1.0" encoding="utf-8"?>
<!-- Generator: Adobe Illustrator 26.0.1, SVG Export Plug-In . SVG Version: 6.00 Build 0)  -->
<svg version="1.1" id="Layer_1" xmlns="http://www.w3.org/2000/svg"
    xmlns:xlink="http://www.w3.org/1999/xlink" x="0px" y="0px"
    viewBox="0 0 1920 1080" style="enable-background:new 0 0 1920 1080;" xml:space="preserve">
<style type="text/css">
	.st0{fill:#FFFFFF;}
	.st1{fill:#FAFBFC;}
	.st2{fill:#F4F7F8;}
	.st3{fill:#EFF3F5;}
	.st4{fill:#E9EFF2;}
	.st5{fill:#E4EBEE;}
	.st6{fill:#DEE7EB;}
	.st7{fill:#D9E3E8;}
	.st8{fill:#D4DFE4;}
	.st9{fill:#CEDBE1;}
	.st10{fill:#C9D7DE;}
	.st11{fill:#C3D2DA;}
	.st12{fill:#BECED7;}
	.st13{fill:#B8CAD4;}
	.st14{fill:#B3C6D0;}
	.st15{fill:#AEC2CD;}
	.st16{fill:#A8BECA;}
	.st17{fill:#A3BAC6;}
	.st18{fill:#9DB6C3;}
	.st19{fill:#98B2C0;}
	.st20{fill:#92AEBC;}
	.st21{fill:#8DAAB9;}
	.st22{fill:url(#SVGID_1_);}
	.st23{fill:url(#SVGID_00000030464196583717200290000014637605433714080137_);}
	.st24{fill:url(#SVGID_00000028307616724589240130000007991286444066513331_);}
	.st25{fill:url(#SVGID_00000153680496897572873390000006738890429527576493_);}
	.st26{fill:url(#SVGID_00000075865455995988908120000013707594701998377361_);}
	.st27{fill:url(#SVGID_00000029763585610551052440000017866297006913432989_);}
	.st28{fill:url(#SVGID_00000168080493294833367060000009531132962045592471_);}
	.st29{fill:url(#SVGID_00000086692672969683663180000012800528177706939323_);}
	.st30{fill:url(#SVGID_00000091696563026194689360000001317276034200708487_);}
	.st31{fill:url(#SVGID_00000054259828866223637860000005477738334706103963_);}
	.st32{fill:url(#SVGID_00000134225594848214138750000000542358693948815753_);}
	.st33{fill:url(#SVGID_00000090256398844238812540000013718664852712067510_);}
	.st34{fill:url(#SVGID_00000057122244910563298080000011633356988787022475_);}
	.st35{fill:url(#SVGID_00000026862608848611667680000016023398153000921752_);}
	.st36{fill:url(#SVGID_00000183227742274892803360000000943604005956341175_);}
	.st37{fill:url(#SVGID_00000067923016742294843490000017335745519808549504_);}
	.st38{fill:url(#SVGID_00000101085435340228806600000004712074532088260485_);}
	.st39{fill:url(#SVGID_00000165214475264077664660000008185794859434110137_);}
	.st40{fill:url(#SVGID_00000026160313157546176050000016976724713346890414_);}
	.st41{fill:url(#SVGID_00000008833678407735002770000013435139722728765115_);}
	.st42{fill:url(#SVGID_00000161620852222181797860000009634794261867465913_);}
	.st43{fill:url(#SVGID_00000122689196074701335880000010678349074880420276_);}
	.st44{fill:url(#SVGID_00000132061438903955299390000012054102785419633853_);}
	.st45{fill:url(#SVGID_00000103225690342075482650000005647575697827556540_);}
	.st46{fill:url(#SVGID_00000026863529442791434780000010947861372665699999_);}
	.st47{fill:url(#SVGID_00000137852758052020304680000000999217153220570296_);}
	.st48{fill:url(#SVGID_00000058572225838616682480000017147787048285258653_);}
	.st49{fill:url(#SVGID_00000174593022264685976980000007408090264683685259_);}
	.st50{fill:url(#SVGID_00000000211383147224999960000016433042618611926964_);}
	.st51{fill:url(#SVGID_00000140698715121610857440000003972836404055764888_);}
	.st52{fill:url(#SVGID_00000034072860335540788800000010827302504404943517_);}
	.st53{fill:url(#SVGID_00000166665262259485354540000001426529001114662067_);}
	.st54{fill:#5C6B83;}
	.st55{fill:#929CAA;}
	.st56{fill:url(#SVGID_00000007426012069906089550000001014494456913844151_);}
	.st57{fill:url(#SVGID_00000027597407426537555280000011526359504467265967_);}
	.st58{fill:url(#SVGID_00000067940109919515034270000000389844578710459032_);}
	.st59{fill:url(#SVGID_00000150821044788490039870000010295911956750444437_);}
	.st60{fill:url(#SVGID_00000040570216980110806870000009127367357511312545_);}
	.st61{fill:url(#SVGID_00000017475681612027041040000007518511461450581893_);}
	.st62{fill:url(#SVGID_00000183970057545665707140000000131649001147844773_);}
	.st63{fill:url(#SVGID_00000072970883295879003090000003974244027097969327_);}
	.st64{fill:url(#SVGID_00000029047694017372655310000006214864423310503056_);}
	.st65{fill:url(#SVGID_00000048467739492514412620000015534128314025207432_);}
	.st66{fill:url(#SVGID_00000137111176974850966060000002976437927244023736_);}
	.st67{fill:url(#SVGID_00000109006545652593502300000003470714700707932549_);}
	.st68{fill:url(#SVGID_00000082361276001532559410000017698108986819992219_);}
	.st69{fill:url(#SVGID_00000116919089272286547250000008635972394532353213_);}
	.st70{fill:url(#SVGID_00000092430191323365805600000016805708865361534109_);}
	.st71{fill:#F7F7F7;}
	.st72{fill:url(#SVGID_00000165954229164440869170000012635804498293720212_);}
	.st73{fill:url(#SVGID_00000047061787345526298010000013969048321300354224_);}
	.st74{fill:url(#SVGID_00000110462812480892750820000008655715208168489106_);}
	.st75{fill:url(#SVGID_00000065769774540002108260000014820916033910755995_);}
	.st76{fill:url(#SVGID_00000077293285511577805200000003358641850733666193_);}
	.st77{filter:url(#Adobe_OpacityMaskFilter);}
	.st78{fill:url(#SVGID_00000098910940955884906140000003958873709625408433_);}
	
		.st79{mask:url(#SVGID_00000007416629528838462940000002175120766902441895_);fill:url(#SVGID_00000122000046960491539250000009301494276503361158_);}
	.st80{filter:url(#Adobe_OpacityMaskFilter_00000159447513663328618760000007803853101648415125_);}
	.st81{fill:url(#SVGID_00000107568415396842472930000008049708782196574644_);}
	
		.st82{mask:url(#SVGID_00000179635074583761305960000001140506536753422768_);fill:url(#SVGID_00000098202474901066279820000010209707928304637105_);}
	.st83{opacity:0.7;}
	.st84{opacity:0;fill:#FFFFFF;}
	.st85{opacity:4.761905e-02;fill:url(#SVGID_00000028299159426696756920000010796588695791922107_);}
	.st86{opacity:9.523810e-02;fill:url(#SVGID_00000149368056514841439040000013357454077555500447_);}
	.st87{opacity:0.1429;fill:url(#SVGID_00000137116801480037211490000003262013541633964419_);}
	.st88{opacity:0.1905;fill:url(#SVGID_00000081635148228687146780000004237681006425472670_);}
	.st89{opacity:0.2381;fill:url(#SVGID_00000161610502394166062110000014531380260424567690_);}
	.st90{opacity:0.2857;fill:url(#SVGID_00000016056675117568373060000005342975513341300124_);}
	.st91{opacity:0.3333;fill:url(#SVGID_00000107553126869653838210000004231170186078260395_);}
	.st92{opacity:0.381;fill:url(#SVGID_00000165946590539224142000000003198602190039278769_);}
	.st93{opacity:0.4286;fill:url(#SVGID_00000067956856946523948140000018326443155073867400_);}
	.st94{opacity:0.4762;fill:url(#SVGID_00000041289976253838221160000010865042468233116580_);}
	.st95{opacity:0.5238;fill:url(#SVGID_00000171690258454089755280000009513976932529313214_);}
	.st96{opacity:0.5714;fill:url(#SVGID_00000093140292585410923280000017416407129842934428_);}
	.st97{opacity:0.619;fill:url(#SVGID_00000090257370881203742470000013994812377777855627_);}
	.st98{opacity:0.6667;fill:url(#SVGID_00000120518021158629536600000009921692782790382507_);}
	.st99{opacity:0.7143;fill:url(#SVGID_00000155141433062600606320000009606097683377832377_);}
	.st100{opacity:0.7619;fill:url(#SVGID_00000043416937207910358750000011053852848017847425_);}
	.st101{opacity:0.8095;fill:url(#SVGID_00000127762928434138860490000018000241056722641580_);}
	.st102{opacity:0.8571;fill:url(#SVGID_00000100383245542412155350000016823630497395534499_);}
	.st103{opacity:0.9048;fill:url(#SVGID_00000083780958169662571330000012145652859817117618_);}
	.st104{opacity:0.9524;fill:url(#SVGID_00000183957260541490922750000000335535606863996289_);}
	.st105{fill:url(#SVGID_00000008871696647782316760000001371247688951017897_);}
	.st106{filter:url(#Adobe_OpacityMaskFilter_00000165213159254554872200000008629927403539779200_);}
	
		.st107{opacity:0.2;mask:url(#SVGID_00000117660594246685469150000016173898189326735285_);fill:url(#SVGID_00000118365581520281357240000007404288469783529130_);}
	.st108{fill:url(#SVGID_00000020385172769151450480000012477713843088847290_);}
	.st109{filter:url(#Adobe_OpacityMaskFilter_00000179630231075250458070000004557084230600181671_);}
	.st110{fill:url(#SVGID_00000178183861182964726440000009472442003109290900_);}
	
		.st111{mask:url(#SVGID_00000134211807396921811820000000005448508972607150_);fill:url(#SVGID_00000078723232441031461800000002167445984726828965_);}
	.st112{filter:url(#Adobe_OpacityMaskFilter_00000091723966965178757110000001471631480243643313_);}
	.st113{fill:url(#SVGID_00000005255546964159792720000005416127122764987043_);}
	
		.st114{mask:url(#SVGID_00000130638191970552766950000018213892067179727267_);fill:url(#SVGID_00000083782253314826260490000003734456558642927766_);}
	.st115{font-family:'ArialMT-Black';}
	.st116{font-size:22px;}
</style>
<g id="Button_2_">
	<g id="AddDetail_1_">
		<g>
			<path class="st0" d="M979.3,336.2c-0.6,0.6-4.4,0.9-8.1,1c-3.7,0.1-7.1,0-7.1,0c-1-0.2-2-2-2.6-4.6c-0.7-2.7-1.1-6.1-1.2-9.6
				c-0.2-6.9,0.9-13.8,4-13.8c6.2,0,9.6,4.5,9.2,11.4l-0.1,2.3c0,2.7,0.6,4.6,2.1,6.6c0.9,1.1,1.7,2.9,2.7,3.9c1,1,2.7,1.5,1.8,2.4
				L979.3,336.2z"/>
			<path class="st1" d="M964.2,309.2c2.6,0,4.7,0.8,6.3,2.3c1.5,1.4,2.5,3.5,2.8,6.1c0.1,1,0.1,2.1,0.1,3.1c0,0-0.1,2.2-0.1,2.3
				c0,2.6,0.5,4.6,2,6.5c0.9,1.1,1.7,2.9,2.6,3.8c0.5,0.5,1.2,0.9,1.7,1.3c0.4,0.3,0.6,0.7,0.2,1.1c0,0-0.6,0.4-0.6,0.4
				c-0.3,0.3-1.5,0.5-3,0.7c-1.5,0.2-3.2,0.2-5,0.3c-3.6,0.1-7.1,0.1-7.1,0.1c-0.9-0.1-1.7-1.7-2.3-3.9c-0.1-0.2-0.1-0.5-0.2-0.7
				c-0.7-2.6-1.1-6.1-1.2-9.5C960.1,316.1,961.1,309.2,964.2,309.2z"/>
			<path class="st2" d="M964.1,309.3c2.6,0,4.7,0.8,6.3,2.3c1.5,1.5,2.5,3.5,2.8,6.1c0.1,1,0.1,2.1,0.1,3.1c0,0-0.1,2.2-0.1,2.2
				c0,2.6,0.5,4.5,2,6.4c0.8,1.1,1.7,2.9,2.6,3.8c0.5,0.5,1.2,0.9,1.7,1.2c0.4,0.3,0.6,0.6,0.2,1c0,0-0.5,0.4-0.6,0.4
				c-0.3,0.3-1.5,0.6-3,0.7c-1.4,0.2-3.2,0.3-5,0.3c-3.6,0.1-7,0.1-7,0.1c-0.9-0.1-1.6-1.6-2.3-3.9c-0.1-0.2-0.1-0.5-0.2-0.7
				c-0.6-2.6-1.1-6.1-1.2-9.5C960.1,316.1,961.1,309.3,964.1,309.3z"/>
			<path class="st3" d="M964.1,309.3c2.6,0,4.7,0.8,6.3,2.3c1.5,1.5,2.5,3.6,2.8,6.1c0.1,1,0.1,2.2,0,3.1c0,0.1-0.1,2.1-0.1,2.2
				c0,2.5,0.5,4.5,1.9,6.4c0.8,1.1,1.6,2.8,2.5,3.7c0.5,0.5,1.2,0.9,1.6,1.2c0.4,0.3,0.6,0.6,0.2,1c0,0-0.5,0.4-0.5,0.4
				c-0.3,0.3-1.5,0.6-3,0.7c-1.4,0.2-3.2,0.3-4.9,0.4c-3.6,0.2-7,0.2-7,0.2c-0.8-0.1-1.6-1.6-2.2-3.9c-0.1-0.2-0.1-0.5-0.2-0.7
				c-0.6-2.6-1.1-6-1.2-9.4C960.1,316.1,961,309.3,964.1,309.3z"/>
			<path class="st4" d="M964,309.3c2.6,0,4.7,0.8,6.3,2.3c1.6,1.5,2.5,3.6,2.8,6.1c0.1,1,0,2.2,0,3.1c0,0.1-0.1,2-0.1,2.2
				c0,2.5,0.5,4.4,1.9,6.3c0.8,1.1,1.6,2.8,2.5,3.7c0.5,0.5,1.2,0.9,1.6,1.2c0.4,0.3,0.6,0.6,0.3,1c0,0-0.5,0.4-0.5,0.4
				c-0.3,0.3-1.5,0.6-3,0.7c-1.4,0.2-3.2,0.3-4.9,0.4c-3.5,0.2-6.9,0.2-6.9,0.2c-0.8-0.1-1.5-1.6-2.1-3.9c-0.1-0.2-0.1-0.5-0.2-0.7
				c-0.6-2.6-1-6-1.2-9.4C960.1,316.1,961,309.3,964,309.3z"/>
			<path class="st5" d="M963.9,309.4c2.6,0,4.7,0.8,6.3,2.3c1.6,1.5,2.5,3.6,2.8,6.2c0.1,1,0,2.3,0,3.1c0,0.1-0.1,2-0.1,2.1
				c0,2.4,0.5,4.3,1.8,6.2c0.8,1.1,1.6,2.7,2.4,3.6c0.5,0.5,1.1,0.8,1.6,1.2c0.4,0.3,0.6,0.6,0.3,0.9c0.1,0-0.4,0.4-0.5,0.4
				c-0.3,0.3-1.5,0.6-3,0.8c-1.4,0.2-3.2,0.3-4.9,0.4c-3.5,0.2-6.9,0.3-6.9,0.3c-0.7-0.1-1.4-1.6-2-3.9c-0.1-0.2-0.1-0.5-0.2-0.7
				c-0.6-2.6-1-5.9-1.2-9.3C960.1,316.1,961,309.4,963.9,309.4z"/>
			<path class="st6" d="M963.9,309.4c2.6,0,4.7,0.9,6.3,2.4c1.6,1.5,2.5,3.6,2.8,6.2c0.1,1,0,2.3-0.1,3.1c0,0.1-0.1,1.9-0.1,2.1
				c0,2.4,0.5,4.3,1.7,6.1c0.7,1.1,1.5,2.7,2.4,3.6c0.5,0.5,1.1,0.8,1.6,1.2c0.4,0.3,0.6,0.6,0.3,0.9c0.1,0-0.4,0.4-0.4,0.4
				c-0.3,0.3-1.5,0.6-3,0.8c-1.4,0.2-3.2,0.4-4.9,0.5c-3.5,0.2-6.8,0.3-6.8,0.3c-0.7-0.1-1.4-1.6-1.9-3.9c-0.1-0.2-0.1-0.5-0.2-0.7
				c-0.6-2.6-1-5.9-1.2-9.2C960.2,316.1,960.9,309.4,963.9,309.4z"/>
			<path class="st7" d="M963.8,309.4c2.6,0,4.7,0.9,6.3,2.4c1.6,1.5,2.6,3.6,2.8,6.2c0.1,1-0.1,2.4-0.1,3.1c0,0.2-0.1,1.9-0.1,2.1
				c0,2.3,0.5,4.2,1.7,6c0.7,1.1,1.5,2.7,2.4,3.5c0.5,0.5,1.1,0.8,1.6,1.1c0.4,0.3,0.6,0.5,0.4,0.9c0.1,0-0.3,0.4-0.4,0.4
				c-0.3,0.3-1.5,0.6-2.9,0.8c-1.4,0.2-3.1,0.4-4.8,0.5c-3.5,0.3-6.8,0.4-6.8,0.4c-0.6-0.1-1.3-1.6-1.8-4c-0.1-0.2-0.1-0.5-0.2-0.7
				c-0.6-2.6-1-5.9-1.2-9.2C960.2,316.1,960.9,309.4,963.8,309.4z"/>
			<path class="st8" d="M963.7,309.4c2.6,0,4.7,0.9,6.3,2.4c1.6,1.5,2.6,3.7,2.8,6.2c0.1,1-0.1,2.4-0.1,3.1c0,0.2-0.1,1.8-0.1,2
				c0,2.3,0.5,4.1,1.6,6c0.7,1.1,1.4,2.6,2.3,3.5c0.5,0.5,1.1,0.8,1.5,1.1c0.4,0.3,0.6,0.5,0.4,0.8c0.1,0-0.3,0.3-0.4,0.4
				c-0.3,0.3-1.5,0.6-2.9,0.8c-1.4,0.2-3.1,0.4-4.8,0.5c-3.4,0.3-6.7,0.4-6.7,0.4c-0.6-0.1-1.2-1.6-1.8-4c-0.1-0.2-0.1-0.5-0.2-0.7
				c-0.6-2.5-1-5.8-1.2-9.1C960.2,316.2,960.9,309.4,963.7,309.4z"/>
			<path class="st9" d="M963.7,309.5c2.6,0,4.7,0.9,6.3,2.4c1.6,1.5,2.6,3.7,2.8,6.2c0.1,1-0.1,2.5-0.2,3.1c0,0.2-0.1,1.8-0.1,2
				c0,2.2,0.5,4.1,1.6,5.9c0.7,1.1,1.4,2.6,2.3,3.4c0.5,0.5,1.1,0.8,1.5,1.1c0.4,0.3,0.6,0.5,0.4,0.8c0.1,0.1-0.3,0.3-0.4,0.4
				c-0.4,0.3-1.5,0.6-2.9,0.8c-1.4,0.2-3.1,0.4-4.8,0.6c-3.4,0.3-6.6,0.5-6.6,0.5c-0.5-0.1-1.1-1.6-1.7-4c-0.1-0.2-0.1-0.5-0.2-0.7
				c-0.5-2.5-1-5.8-1.1-9C960.2,316.2,960.8,309.5,963.7,309.5z"/>
			<path class="st10" d="M963.6,309.5c2.6,0,4.7,0.9,6.3,2.4c1.6,1.5,2.6,3.7,2.7,6.2c0.1,1-0.2,2.6-0.2,3.1c0,0.2-0.1,1.7-0.1,2
				c0,2.2,0.4,4,1.5,5.8c0.7,1.1,1.4,2.5,2.2,3.4c0.5,0.4,1,0.8,1.5,1.1c0.4,0.3,0.6,0.5,0.5,0.7c0.1,0.1-0.2,0.3-0.3,0.4
				c-0.4,0.3-1.5,0.6-2.9,0.8c-1.4,0.2-3.1,0.4-4.7,0.6c-3.4,0.3-6.6,0.5-6.6,0.5c-0.5-0.1-1.1-1.6-1.6-4c-0.1-0.2-0.1-0.5-0.2-0.7
				c-0.5-2.5-0.9-5.7-1.1-9C960.2,316.2,960.8,309.5,963.6,309.5z"/>
			<path class="st11" d="M963.6,309.5c2.6,0,4.7,0.9,6.3,2.5c1.6,1.5,2.6,3.7,2.7,6.2c0.1,1-0.2,2.6-0.2,3.1c0,0.3-0.1,1.6-0.1,1.9
				c0,2.1,0.4,4,1.4,5.7c0.6,1.1,1.3,2.5,2.2,3.3c0.4,0.4,1,0.8,1.5,1c0.4,0.3,0.6,0.5,0.5,0.7c0.1,0.1-0.2,0.3-0.3,0.4
				c-0.4,0.3-1.4,0.6-2.9,0.8c-1.4,0.2-3.1,0.5-4.7,0.6c-3.4,0.4-6.5,0.6-6.5,0.6c-0.5-0.1-1-1.6-1.5-4c0-0.2-0.1-0.5-0.1-0.7
				c-0.5-2.5-0.9-5.7-1.1-8.9C960.3,316.2,960.8,309.5,963.6,309.5z"/>
			<path class="st12" d="M963.5,309.6c2.6,0,4.7,0.9,6.3,2.5c1.6,1.6,2.6,3.7,2.7,6.3c0.1,1.1-0.2,2.7-0.3,3.1
				c0,0.3-0.1,1.6-0.1,1.9c0,2.1,0.4,3.9,1.4,5.6c0.6,1.1,1.3,2.5,2.1,3.3c0.4,0.4,1,0.7,1.4,1c0.4,0.2,0.6,0.4,0.6,0.7
				c0.1,0.1-0.1,0.3-0.3,0.4c-0.4,0.3-1.4,0.6-2.9,0.8c-1.4,0.3-3.1,0.5-4.7,0.7c-3.3,0.4-6.5,0.6-6.5,0.6c-0.4-0.1-0.9-1.6-1.4-4
				c0-0.2-0.1-0.5-0.1-0.7c-0.5-2.5-0.9-5.7-1.1-8.9C960.3,316.2,960.7,309.6,963.5,309.6z"/>
			<path class="st13" d="M963.4,309.6c2.5,0,4.7,0.9,6.3,2.5c1.6,1.6,2.6,3.8,2.7,6.3c0.1,1.1-0.3,2.7-0.3,3.1
				c0,0.3-0.1,1.5-0.1,1.9c0,2,0.4,3.8,1.3,5.5c0.6,1.1,1.3,2.4,2.1,3.2c0.4,0.4,1,0.7,1.4,1c0.4,0.2,0.7,0.4,0.6,0.6
				c0.1,0.1-0.1,0.3-0.2,0.4c-0.4,0.3-1.4,0.6-2.8,0.9c-1.4,0.3-3,0.5-4.7,0.7c-3.3,0.4-6.4,0.7-6.4,0.7c-0.4-0.1-0.9-1.6-1.4-4
				c0-0.2-0.1-0.4-0.1-0.7c-0.5-2.5-0.9-5.6-1.1-8.8C960.3,316.2,960.7,309.6,963.4,309.6z"/>
			<path class="st14" d="M963.4,309.6c2.5,0,4.7,0.9,6.4,2.5c1.6,1.6,2.6,3.8,2.7,6.3c0,1.1-0.3,2.8-0.3,3.1c0,0.3-0.1,1.5-0.1,1.8
				c0,1.9,0.4,3.8,1.3,5.5c0.6,1.1,1.2,2.4,2,3.2c0.4,0.4,0.9,0.7,1.4,1c0.4,0.2,0.7,0.4,0.6,0.6c0.2,0.1-0.1,0.3-0.2,0.4
				c-0.4,0.3-1.4,0.6-2.8,0.9c-1.4,0.3-3,0.5-4.6,0.7c-3.3,0.4-6.4,0.7-6.4,0.7c-0.3,0-0.8-1.6-1.3-4c0-0.2-0.1-0.4-0.1-0.7
				c-0.5-2.5-0.9-5.6-1.1-8.7C960.3,316.2,960.7,309.6,963.4,309.6z"/>
			<path class="st15" d="M963.3,309.6c2.5,0,4.8,1,6.4,2.5c1.6,1.6,2.6,3.8,2.7,6.3c0,1.1-0.4,2.8-0.4,3.1c0,0.4-0.1,1.4-0.1,1.8
				c0,1.9,0.4,3.7,1.2,5.4c0.6,1.1,1.2,2.3,2,3.1c0.4,0.4,0.9,0.7,1.4,0.9c0.4,0.2,0.7,0.4,0.7,0.6c0.2,0.1,0,0.3-0.2,0.4
				c-0.4,0.3-1.4,0.6-2.8,0.9c-1.3,0.3-3,0.5-4.6,0.8c-3.2,0.4-6.3,0.7-6.3,0.7c-0.3,0-0.7-1.6-1.2-4c0-0.2-0.1-0.4-0.1-0.7
				c-0.5-2.4-0.9-5.6-1.1-8.7C960.3,316.2,960.7,309.6,963.3,309.6z"/>
			<path class="st16" d="M963.3,309.7c2.5,0,4.8,1,6.4,2.6c1.6,1.6,2.6,3.8,2.7,6.3c0,1.1-0.4,2.9-0.4,3.1c0,0.4-0.1,1.3-0.1,1.8
				c0,1.8,0.4,3.7,1.1,5.3c0.5,1.1,1.2,2.3,2,3.1c0.4,0.4,0.9,0.7,1.4,0.9c0.4,0.2,0.7,0.4,0.7,0.5c0.2,0.1,0,0.3-0.1,0.4
				c-0.4,0.3-1.4,0.6-2.8,0.9c-1.3,0.3-3,0.6-4.6,0.8c-3.2,0.5-6.3,0.8-6.3,0.8c-0.2,0-0.7-1.6-1.1-4c0-0.2-0.1-0.4-0.1-0.7
				c-0.4-2.4-0.9-5.5-1.1-8.6C960.4,316.3,960.6,309.7,963.3,309.7z"/>
			<path class="st17" d="M963.2,309.7c2.5,0,4.8,1,6.4,2.6c1.6,1.6,2.6,3.8,2.7,6.3c0,1.1-0.4,2.9-0.4,3.1c0,0.4-0.1,1.3-0.1,1.7
				c0,1.8,0.3,3.6,1.1,5.2c0.5,1.1,1.1,2.3,1.9,3c0.4,0.4,0.9,0.7,1.3,0.9c0.4,0.2,0.7,0.4,0.7,0.5c0.2,0.1,0.1,0.2-0.1,0.4
				c-0.4,0.3-1.4,0.6-2.8,0.9c-1.3,0.3-3,0.6-4.5,0.8c-3.2,0.5-6.2,0.8-6.2,0.8c-0.2,0-0.6-1.6-1-4c0-0.2-0.1-0.4-0.1-0.7
				c-0.4-2.4-0.8-5.5-1.1-8.5C960.4,316.3,960.6,309.7,963.2,309.7z"/>
			<path class="st18" d="M963.1,309.7c2.5,0,4.8,1,6.4,2.6c1.6,1.6,2.6,3.8,2.7,6.4c0,1.1-0.5,3-0.5,3.1c0,0.4-0.1,1.2-0.1,1.7
				c0,1.7,0.3,3.5,1,5.1c0.5,1.1,1.1,2.2,1.9,2.9c0.4,0.4,0.9,0.7,1.3,0.9c0.4,0.2,0.7,0.3,0.8,0.5c0.2,0.1,0.1,0.2-0.1,0.4
				c-0.4,0.3-1.4,0.6-2.8,0.9c-1.3,0.3-2.9,0.6-4.5,0.9c-3.2,0.5-6.1,0.9-6.1,0.9c-0.1,0-0.5-1.6-0.9-4c0-0.2-0.1-0.4-0.1-0.7
				c-0.4-2.4-0.8-5.4-1.1-8.5C960.4,316.3,960.6,309.7,963.1,309.7z"/>
			<path class="st19" d="M963.1,309.8c2.5,0,4.8,1,6.4,2.6c1.6,1.6,2.6,3.9,2.7,6.4c0,1.1-0.5,3-0.5,3.1c0,0.5-0.1,1.2-0.1,1.7
				c0,1.7,0.3,3.5,1,5.1c0.5,1.1,1.1,2.2,1.8,2.9c0.4,0.4,0.8,0.6,1.3,0.9c0.4,0.2,0.7,0.3,0.8,0.4c0.2,0.1,0.1,0.2-0.1,0.4
				c-0.4,0.3-1.4,0.6-2.7,0.9c-1.3,0.3-2.9,0.6-4.5,0.9c-3.1,0.5-6.1,0.9-6.1,0.9c-0.1,0-0.5-1.6-0.9-4c0-0.2-0.1-0.4-0.1-0.7
				c-0.4-2.4-0.8-5.4-1.1-8.4C960.4,316.3,960.5,309.8,963.1,309.8z"/>
			<path class="st20" d="M963,309.8c2.5,0,4.8,1,6.4,2.6c1.6,1.6,2.6,3.9,2.7,6.4c0,1.1-0.5,3.1-0.5,3.1c0,0.5-0.1,1.1-0.1,1.6
				c0,1.6,0.3,3.4,0.9,5c0.4,1.1,1,2.1,1.8,2.8c0.4,0.4,0.8,0.6,1.3,0.8c0.4,0.2,0.7,0.3,0.8,0.4c0.2,0.1,0.2,0.2,0,0.4
				c-0.4,0.3-1.4,0.6-2.7,0.9c-1.3,0.3-2.9,0.6-4.5,0.9c-3.1,0.6-6,1-6,1c0,0-0.4-1.6-0.8-4.1c0-0.2-0.1-0.4-0.1-0.6
				c-0.4-2.4-0.8-5.4-1.1-8.4C960.4,316.3,960.5,309.8,963,309.8z"/>
			<path class="st21" d="M963,335.8c0,0,2.9-0.4,6-1c1.5-0.3,3.1-0.6,4.4-1c1.3-0.3,2.3-0.7,2.7-1c0.4-0.3,0.1-0.3-0.9-0.7
				c-3.2-1.3-4.1-6.7-3.8-10.1c0,0,0.6-2,0.6-3.1c0-2.5-1-4.8-2.6-6.4c-1.6-1.6-3.9-2.7-6.4-2.7c-2.5,0-2.5,6.5-1.9,13
				c0.3,3.2,0.8,6.5,1.2,8.9C962.6,334.2,963,335.8,963,335.8z"/>
		</g>
		<linearGradient id="SVGID_1_" gradientUnits="userSpaceOnUse" x1="896.0804" y1="326.2924" x2="980.1945" y2="326.2924">
			<stop  offset="0" style="stop-color:#9AA5B5"/>
			<stop  offset="1.083934e-02" style="stop-color:#B9C0CC"/>
			<stop  offset="2.274435e-02" style="stop-color:#D2D7DE"/>
			<stop  offset="3.597395e-02" style="stop-color:#E6E9ED"/>
			<stop  offset="5.104192e-02" style="stop-color:#F4F5F7"/>
			<stop  offset="6.952164e-02" style="stop-color:#FDFDFD"/>
			<stop  offset="0.1014" style="stop-color:#FFFFFF"/>
			<stop  offset="0.2027" style="stop-color:#F7F8F9"/>
			<stop  offset="0.8074" style="stop-color:#F7F8F9"/>
			<stop  offset="0.8274" style="stop-color:#F0F1F4"/>
			<stop  offset="0.8573" style="stop-color:#DBDFE5"/>
			<stop  offset="0.8933" style="stop-color:#BAC1CC"/>
			<stop  offset="0.899" style="stop-color:#B4BCC8"/>
			<stop  offset="1" style="stop-color:#F7F8F9"/>
		</linearGradient>
		<path class="st22" d="M979.7,334.3c-2.9-1.3-7.6-5.6-7.7-9.7v-7.1c0-4.7-3.8-8.5-8.5-8.5h-50.7c-4.7,0-8.5,3.8-8.5,8.5v6.9
			c0,4.1-4.8,8.5-7.7,9.9c-2.3,1,4.7,2.5,8.1,3.1c1,3.6,4.3,6.2,8.2,6.2h50.7c3.9,0,7.2-2.7,8.2-6.2
			C975,336.7,982,335.3,979.7,334.3z"/>
		
			<radialGradient id="SVGID_00000045598426884938031000000011466471493979431069_" cx="939.3769" cy="427.2083" r="120.8252" gradientUnits="userSpaceOnUse">
			<stop  offset="0.8325" style="stop-color:#FEFEFE"/>
			<stop  offset="1" style="stop-color:#F7F7F7"/>
		</radialGradient>
		<path style="fill:url(#SVGID_00000045598426884938031000000011466471493979431069_);" d="M912.8,342.6c-3.3,0-6.3-2.3-7.2-5.5
			l-0.2-0.6l-0.6-0.1c-3.6-0.7-5.8-1.2-6.9-1.6c3.3-1.9,7.4-6.2,7.4-10.3v-6.9c0-4.1,3.4-7.5,7.5-7.5h50.7c4.1,0,7.5,3.4,7.5,7.5
			v7.1c0.1,4.1,4.2,8.3,7.4,10.1c-1.1,0.4-3.2,1-6.9,1.6l-0.6,0.1l-0.2,0.6c-0.9,3.2-3.9,5.5-7.2,5.5H912.8z"/>
	</g>
	<g id="ButtonScrews_1_">
		
			<radialGradient id="SVGID_00000036248347129371315880000014281748467442333570_" cx="1028.7631" cy="521.952" r="14.9473" gradientUnits="userSpaceOnUse">
			<stop  offset="0.6182" style="stop-color:#A1B7D1"/>
			<stop  offset="0.6885" style="stop-color:#ABBFD6"/>
			<stop  offset="0.8099" style="stop-color:#C7D4E4"/>
			<stop  offset="0.9668" style="stop-color:#F5F7FA"/>
			<stop  offset="1" style="stop-color:#FFFFFF"/>
		</radialGradient>
		<path style="fill:url(#SVGID_00000036248347129371315880000014281748467442333570_);" d="M1043.7,522c0,8.3-6.7,14.9-15,14.9
			c-8.3,0-14.9-6.7-14.9-14.9c0-8.3,6.7-14.9,14.9-14.9C1037,507,1043.7,513.7,1043.7,522z"/>
		
			<radialGradient id="SVGID_00000134225580411166339220000013805445850083228328_" cx="851.4911" cy="343.5889" r="16.0648" gradientUnits="userSpaceOnUse">
			<stop  offset="0.6182" style="stop-color:#A1B7D1"/>
			<stop  offset="0.6885" style="stop-color:#ABBFD6"/>
			<stop  offset="0.8099" style="stop-color:#C7D4E4"/>
			<stop  offset="0.9668" style="stop-color:#F5F7FA"/>
			<stop  offset="1" style="stop-color:#FFFFFF"/>
		</radialGradient>
		<path style="fill:url(#SVGID_00000134225580411166339220000013805445850083228328_);" d="M867.6,343.6c0,8.9-7.2,16.1-16.1,16.1
			s-16.1-7.2-16.1-16.1c0-8.9,7.2-16.1,16.1-16.1S867.6,334.7,867.6,343.6z"/>
		<g>
			<path class="st0" d="M1026.2,377.7c-2.8,0-13.4-7.4-19.4-11.9l-0.2-0.2l-0.1-0.2c-4-5.5-9.2-11.4-11.5-18
				c-0.2-0.6-0.5-1.4-0.3-2.1c1.1-3.5,6.4,1.1,8.5,1.1c4.3,0,7.6-4.4,9.2-8l1.4-2.4c5.6-8.3,17.7-9.3,24.8-2.3
				c7.1,7.1,5.9,19.2-2.3,24.8l-2.4,1.4c-3.4,1.5-7.4,4.5-7.9,8.5c-0.3,2.3,0.9,3.8,2,5.7C1028.5,375.6,1028.2,377.7,1026.2,377.7
				L1026.2,377.7z"/>
			
				<radialGradient id="SVGID_00000057830822966301248100000005686604503860272560_" cx="1010.475" cy="337.2334" r="33.1811" gradientUnits="userSpaceOnUse">
				<stop  offset="0.6335" style="stop-color:#F3F4F4"/>
				<stop  offset="1" style="stop-color:#FBFCFD"/>
			</radialGradient>
			<path style="fill:url(#SVGID_00000057830822966301248100000005686604503860272560_);" d="M994.6,345.4c0.2-0.7,0.6-1,1.1-1.1
				c2-0.5,5.7,2.3,7.4,2.3c3.6-0.1,6.5-3.2,8.2-6.3c0,0,0,0,0,0c0.3-0.6,0.6-1.2,0.9-1.8c0,0,1.4-2.4,1.4-2.4
				c5.6-8.1,17.6-9.2,24.6-2.2c7,7,5.4,18.3-2.2,24.6c0,0-2.4,1.4-2.4,1.4c-0.4,0.2-0.9,0.4-1.4,0.7c0,0,0,0,0,0
				c-3.1,1.6-6.2,4.4-6.7,7.9c-0.3,2.3,0.9,3.8,1.9,5.7c0.9,1.5,0.5,3.5-1.5,3.5l0,0c-2.9-0.1-13.5-7.6-19.3-11.8
				c0,0-0.2-0.1-0.2-0.1s-0.1-0.2-0.1-0.2c-3.9-5.3-9.1-11.5-11.5-17.9C994.7,346.8,994.4,346,994.6,345.4z"/>
			
				<radialGradient id="SVGID_00000103984642575738374770000018099409024505873315_" cx="1010.4833" cy="337.2119" r="33.0653" gradientUnits="userSpaceOnUse">
				<stop  offset="0.6335" style="stop-color:#E7E8E9"/>
				<stop  offset="0.7598" style="stop-color:#EDEFF1"/>
				<stop  offset="1" style="stop-color:#F6F8FB"/>
			</radialGradient>
			<path style="fill:url(#SVGID_00000103984642575738374770000018099409024505873315_);" d="M994.7,345.3c0.2-0.6,0.6-1,1.1-1
				c2.1-0.4,5.7,2.3,7.5,2.2c3.6-0.2,6.5-3.3,8.2-6.4c0,0,0,0,0,0c0.3-0.6,0.6-1.2,0.9-1.8c0-0.1,1.4-2.4,1.4-2.4
				c5.6-8,17.5-9,24.4-2.1c6.9,6.9,5.4,18.1-2.1,24.4c-0.1,0.1-2.3,1.4-2.4,1.4c-0.5,0.2-0.9,0.4-1.4,0.7c0,0,0,0,0,0
				c-3.1,1.6-6.3,4.4-6.8,7.9c-0.3,2.3,0.8,3.9,1.9,5.8c0.9,1.5,0.5,3.5-1.5,3.4l0,0c-3-0.2-13.5-7.7-19.1-11.8c0,0-0.2-0.1-0.2-0.1
				s-0.1-0.2-0.1-0.2c-3.8-5.1-9.1-11.5-11.5-17.8C994.7,346.7,994.5,346,994.7,345.3z"/>
			
				<radialGradient id="SVGID_00000183941075459407949190000002000528100980734337_" cx="1010.4915" cy="337.1906" r="32.9505" gradientUnits="userSpaceOnUse">
				<stop  offset="0.6335" style="stop-color:#DCDDDE"/>
				<stop  offset="0.8188" style="stop-color:#E9EBEE"/>
				<stop  offset="1" style="stop-color:#F2F5F8"/>
			</radialGradient>
			<path style="fill:url(#SVGID_00000183941075459407949190000002000528100980734337_);" d="M994.8,345.3c0.2-0.6,0.6-0.9,1.2-1
				c2.1-0.2,5.7,2.3,7.5,2.2c3.6-0.3,6.5-3.4,8.2-6.5c0,0,0,0,0,0c0.3-0.6,0.6-1.2,0.9-1.8c0.1-0.1,1.3-2.3,1.5-2.4
				c5.6-7.9,17.3-8.8,24.2-2c6.9,6.9,5.4,17.9-2,24.2c-0.1,0.1-2.3,1.4-2.4,1.5c-0.5,0.2-0.9,0.4-1.4,0.7c0,0,0,0,0,0
				c-3.1,1.6-6.4,4.4-6.9,7.9c-0.3,2.2,0.8,3.9,1.9,5.9c0.9,1.6,0.5,3.4-1.5,3.3l0,0c-3.1-0.3-13.6-7.8-19-11.7c0,0-0.2-0.1-0.2-0.1
				s-0.1-0.2-0.1-0.2c-3.6-4.9-9.1-11.6-11.5-17.8C994.8,346.6,994.5,345.9,994.8,345.3z"/>
			
				<radialGradient id="SVGID_00000034786493142337160110000004147256878262583450_" cx="1010.4999" cy="337.1694" r="32.8367" gradientUnits="userSpaceOnUse">
				<stop  offset="0.6335" style="stop-color:#D0D1D3"/>
				<stop  offset="0.8559" style="stop-color:#E4E7EC"/>
				<stop  offset="1" style="stop-color:#EDF1F6"/>
			</radialGradient>
			<path style="fill:url(#SVGID_00000034786493142337160110000004147256878262583450_);" d="M994.8,345.2c0.2-0.6,0.6-0.8,1.2-0.9
				c2.2-0.1,5.7,2.3,7.5,2.1c3.6-0.3,6.5-3.5,8.1-6.6c0,0,0,0,0,0c0.3-0.6,0.6-1.2,0.9-1.8c0.1-0.2,1.3-2.3,1.5-2.4
				c5.6-7.8,17.2-8.6,24-1.9c6.8,6.8,5.4,17.8-1.9,24c-0.2,0.1-2.3,1.4-2.4,1.5c-0.5,0.2-0.9,0.4-1.4,0.7c0,0,0,0,0,0
				c-3.1,1.6-6.4,4.4-7,8c-0.3,2.2,0.7,3.9,1.9,5.9c0.9,1.6,0.5,3.3-1.5,3.1l0,0c-3.2-0.4-13.7-7.9-18.9-11.7c0,0-0.2-0.1-0.2-0.1
				s-0.1-0.2-0.1-0.2c-3.5-4.7-9.1-11.6-11.4-17.7C994.8,346.6,994.6,345.8,994.8,345.2z"/>
			
				<radialGradient id="SVGID_00000093158373522040537240000014979129582711820426_" cx="1010.5083" cy="337.1483" r="32.724" gradientUnits="userSpaceOnUse">
				<stop  offset="0.6335" style="stop-color:#C4C6C8"/>
				<stop  offset="0.671" style="stop-color:#C9CBCE"/>
				<stop  offset="0.8791" style="stop-color:#E0E5EA"/>
				<stop  offset="1" style="stop-color:#E9EEF4"/>
			</radialGradient>
			<path style="fill:url(#SVGID_00000093158373522040537240000014979129582711820426_);" d="M994.9,345.2c0.2-0.6,0.6-0.8,1.2-0.8
				c2.2,0.1,5.7,2.3,7.6,2.1c3.6-0.4,6.5-3.6,8.1-6.7c0,0,0,0,0,0c0.3-0.6,0.6-1.2,0.9-1.8c0.1-0.2,1.3-2.2,1.5-2.4
				c5.6-7.6,17.1-8.5,23.8-1.8c6.7,6.7,5.4,17.6-1.8,23.8c-0.2,0.2-2.2,1.4-2.5,1.5c-0.5,0.2-0.9,0.5-1.4,0.7c0,0,0,0,0,0
				c-3.1,1.6-6.5,4.4-7.1,8c-0.3,2.2,0.6,4,1.9,6c1,1.6,0.5,3.3-1.5,3l0,0c-3.2-0.5-13.8-8-18.7-11.7c0,0-0.2-0.1-0.2-0.1
				s-0.1-0.2-0.1-0.2c-3.3-4.5-9.1-11.7-11.4-17.7C994.9,346.5,994.7,345.7,994.9,345.2z"/>
			
				<radialGradient id="SVGID_00000021113796996545838990000013245774831338844035_" cx="1010.5168" cy="337.1275" r="32.6124" gradientUnits="userSpaceOnUse">
				<stop  offset="0.6335" style="stop-color:#B8BABD"/>
				<stop  offset="0.7149" style="stop-color:#C4C7CC"/>
				<stop  offset="0.8952" style="stop-color:#DBE1E8"/>
				<stop  offset="1" style="stop-color:#E4EAF2"/>
			</radialGradient>
			<path style="fill:url(#SVGID_00000021113796996545838990000013245774831338844035_);" d="M994.9,345.1c0.2-0.5,0.6-0.7,1.3-0.7
				c2.2,0.2,5.7,2.3,7.6,2c3.6-0.5,6.5-3.7,8.1-6.8c0,0,0,0,0,0c0.3-0.6,0.6-1.2,0.9-1.8c0.1-0.2,1.3-2.2,1.5-2.4
				c5.6-7.5,16.9-8.3,23.6-1.6c6.7,6.7,5.4,17.4-1.7,23.6c-0.2,0.2-2.2,1.4-2.5,1.6c-0.5,0.2-0.9,0.5-1.4,0.7c0,0,0,0,0,0
				c-3.1,1.6-6.6,4.4-7.2,8.1c-0.4,2.2,0.6,4,1.8,6c1,1.7,0.6,3.2-1.5,2.9l0,0c-3.3-0.6-13.9-8.2-18.6-11.6c0,0-0.2-0.1-0.2-0.1
				s-0.1-0.2-0.1-0.2c-3.2-4.3-9.1-11.7-11.4-17.6C994.9,346.4,994.7,345.6,994.9,345.1z"/>
			
				<radialGradient id="SVGID_00000098201923518024001460000004109583288903245722_" cx="1010.5254" cy="337.1069" r="32.502" gradientUnits="userSpaceOnUse">
				<stop  offset="0.6335" style="stop-color:#ADAFB2"/>
				<stop  offset="0.7473" style="stop-color:#C1C4CA"/>
				<stop  offset="0.9071" style="stop-color:#D7DEE6"/>
				<stop  offset="1" style="stop-color:#E0E7F0"/>
			</radialGradient>
			<path style="fill:url(#SVGID_00000098201923518024001460000004109583288903245722_);" d="M995,345.1c0.2-0.5,0.7-0.7,1.3-0.6
				c2.3,0.3,5.7,2.2,7.6,1.9c3.6-0.6,6.5-3.8,8.1-6.9c0,0,0,0,0,0c0.3-0.6,0.6-1.2,0.9-1.8c0.2-0.3,1.3-2.2,1.6-2.4
				c5.6-7.4,16.8-8.1,23.4-1.5c6.6,6.6,5.5,17.3-1.6,23.4c-0.3,0.3-2.2,1.4-2.5,1.6c-0.5,0.2-1,0.5-1.4,0.7c0,0,0,0,0,0
				c-3.1,1.6-6.7,4.4-7.3,8.1c-0.4,2.2,0.5,4,1.8,6.1c1,1.7,0.6,3.1-1.5,2.8l0,0c-3.4-0.7-14-8.3-18.5-11.6c0,0-0.2-0.1-0.2-0.1
				s-0.1-0.2-0.1-0.2c-3-4.1-9-11.7-11.4-17.6C995,346.3,994.8,345.6,995,345.1z"/>
			
				<radialGradient id="SVGID_00000007391156171848963610000014184961245557213087_" cx="1010.5341" cy="337.0865" r="32.393" gradientUnits="userSpaceOnUse">
				<stop  offset="0.6335" style="stop-color:#A1A4A7"/>
				<stop  offset="0.7699" style="stop-color:#BBC1C7"/>
				<stop  offset="0.9154" style="stop-color:#D2DAE3"/>
				<stop  offset="1" style="stop-color:#DBE4ED"/>
			</radialGradient>
			<path style="fill:url(#SVGID_00000007391156171848963610000014184961245557213087_);" d="M995.1,345c0.2-0.5,0.7-0.6,1.3-0.5
				c2.3,0.5,5.7,2.2,7.7,1.9c3.6-0.6,6.4-3.9,8-7c0,0,0,0,0,0c0.3-0.6,0.6-1.3,0.9-1.8c0.2-0.3,1.3-2.1,1.6-2.4
				c5.6-7.3,16.7-7.9,23.2-1.4c6.5,6.5,5.5,17.1-1.5,23.2c-0.3,0.3-2.1,1.4-2.5,1.6c-0.5,0.2-1,0.5-1.4,0.7c0,0,0,0,0,0
				c-3.2,1.6-6.7,4.5-7.4,8.2c-0.4,2.2,0.5,4.1,1.8,6.2c1.1,1.7,0.6,3.1-1.5,2.7l0,0c-3.5-0.8-14.1-8.4-18.3-11.5
				c0,0-0.2-0.1-0.2-0.1s-0.1-0.1-0.1-0.2c-2.9-3.9-9-11.8-11.3-17.5C995,346.2,994.8,345.5,995.1,345z"/>
			
				<radialGradient id="SVGID_00000154404884089327708420000003222343196622217634_" cx="1010.5429" cy="337.0664" r="32.2854" gradientUnits="userSpaceOnUse">
				<stop  offset="0.6335" style="stop-color:#95989C"/>
				<stop  offset="0.7898" style="stop-color:#B7BDC5"/>
				<stop  offset="0.9229" style="stop-color:#CED7E1"/>
				<stop  offset="1" style="stop-color:#D7E0EB"/>
			</radialGradient>
			<path style="fill:url(#SVGID_00000154404884089327708420000003222343196622217634_);" d="M995.1,345c0.2-0.5,0.7-0.6,1.3-0.4
				c2.4,0.6,5.7,2.2,7.7,1.8c3.6-0.7,6.4-4,8-7.1c0,0,0,0,0,0c0.3-0.6,0.6-1.3,1-1.8c0.2-0.4,1.3-2.1,1.6-2.4
				c5.6-7.1,16.5-7.8,23-1.3c6.5,6.5,5.5,16.9-1.3,23c-0.4,0.3-2.1,1.4-2.5,1.7c-0.5,0.2-1,0.5-1.5,0.7c0,0,0,0,0,0
				c-3.2,1.5-6.8,4.5-7.5,8.2c-0.4,2.2,0.4,4.1,1.8,6.2c1.1,1.7,0.6,3-1.5,2.6l0,0c-3.6-0.9-14.2-8.5-18.2-11.5c0,0-0.2-0.1-0.2-0.1
				s-0.1-0.1-0.1-0.2c-2.8-3.7-9-11.8-11.3-17.4C995.1,346.1,994.9,345.4,995.1,345z"/>
			
				<radialGradient id="SVGID_00000106839799541248252090000004892852244702964656_" cx="1010.5518" cy="337.0466" r="32.1794" gradientUnits="userSpaceOnUse">
				<stop  offset="0.6335" style="stop-color:#898D91"/>
				<stop  offset="0.648" style="stop-color:#8D9196"/>
				<stop  offset="0.8065" style="stop-color:#B2BAC3"/>
				<stop  offset="0.929" style="stop-color:#C9D4DF"/>
				<stop  offset="1" style="stop-color:#D2DDE9"/>
			</radialGradient>
			<path style="fill:url(#SVGID_00000106839799541248252090000004892852244702964656_);" d="M995.2,344.9c0.2-0.4,0.7-0.5,1.4-0.3
				c2.4,0.7,5.7,2.2,7.7,1.8c3.6-0.8,6.4-4.1,8-7.2c0,0,0,0,0,0c0.3-0.6,0.6-1.3,1-1.8c0.2-0.4,1.3-2,1.6-2.4
				c5.6-7,16.4-7.6,22.8-1.2c6.4,6.4,5.5,16.8-1.2,22.8c-0.4,0.4-2.1,1.4-2.5,1.7c-0.5,0.3-1,0.5-1.5,0.7c0,0,0,0,0,0
				c-3.2,1.5-6.9,4.5-7.6,8.3c-0.4,2.2,0.4,4.1,1.7,6.3c1.1,1.8,0.6,2.9-1.5,2.5l0,0c-3.7-1-14.3-8.6-18-11.4c0,0-0.2-0.1-0.2-0.1
				s-0.1-0.1-0.1-0.2c-2.6-3.6-9-11.9-11.3-17.4C995.2,346.1,994.9,345.3,995.2,344.9z"/>
			
				<radialGradient id="SVGID_00000139272504765465113590000000971806272907332264_" cx="1010.5608" cy="337.0271" r="32.075" gradientUnits="userSpaceOnUse">
				<stop  offset="0.6335" style="stop-color:#7E8185"/>
				<stop  offset="0.676" style="stop-color:#8A8E94"/>
				<stop  offset="0.8219" style="stop-color:#AFB7C1"/>
				<stop  offset="0.9347" style="stop-color:#C5D0DD"/>
				<stop  offset="1" style="stop-color:#CED9E7"/>
			</radialGradient>
			<path style="fill:url(#SVGID_00000139272504765465113590000000971806272907332264_);" d="M995.2,344.8c0.2-0.4,0.7-0.5,1.4-0.2
				c2.5,0.8,5.7,2.2,7.8,1.7c3.6-0.8,6.4-4.2,7.9-7.3c0,0,0,0,0,0c0.3-0.6,0.6-1.3,1-1.8c0.3-0.4,1.3-2,1.7-2.4
				c5.6-6.9,16.2-7.4,22.6-1.1c6.3,6.3,5.5,16.6-1.1,22.6c-0.4,0.4-2,1.4-2.5,1.7c-0.5,0.3-1,0.5-1.5,0.8c0,0,0,0,0,0
				c-3.2,1.5-6.9,4.5-7.7,8.3c-0.4,2.2,0.3,4.2,1.7,6.4c1.2,1.8,0.6,2.9-1.5,2.4l0,0c-3.8-1.1-14.3-8.7-17.9-11.4
				c0,0-0.2-0.1-0.2-0.1s-0.1-0.1-0.1-0.2c-2.5-3.4-9-11.9-11.2-17.3C995.2,346,995,345.3,995.2,344.8z"/>
			
				<radialGradient id="SVGID_00000065038047762982851060000005932471658665849988_" cx="1010.5699" cy="337.008" r="31.9723" gradientUnits="userSpaceOnUse">
				<stop  offset="0.6335" style="stop-color:#72767A"/>
				<stop  offset="0.6972" style="stop-color:#858B92"/>
				<stop  offset="0.8335" style="stop-color:#AAB4BF"/>
				<stop  offset="0.9389" style="stop-color:#C1CDDB"/>
				<stop  offset="1" style="stop-color:#C9D6E5"/>
			</radialGradient>
			<path style="fill:url(#SVGID_00000065038047762982851060000005932471658665849988_);" d="M995.3,344.8c0.2-0.4,0.7-0.4,1.4-0.1
				c2.5,1,5.7,2.2,7.8,1.7c3.6-0.9,6.4-4.3,7.9-7.4c0,0,0,0,0,0c0.3-0.6,0.6-1.3,1-1.8c0.3-0.5,1.3-2,1.7-2.4
				c5.6-6.8,16.1-7.2,22.4-1c6.3,6.3,5.5,16.4-1,22.4c-0.5,0.4-2,1.4-2.5,1.8c-0.5,0.3-1,0.5-1.5,0.8c0,0,0,0,0,0
				c-3.2,1.5-7,4.5-7.8,8.4c-0.4,2.2,0.3,4.2,1.7,6.4c1.2,1.8,0.6,2.8-1.4,2.3l0,0c-3.8-1.3-14.4-8.9-17.8-11.3
				c-0.1,0-0.2-0.1-0.2-0.1s-0.1-0.1-0.1-0.2c-2.3-3.2-9-11.9-11.2-17.3C995.3,345.9,995.1,345.2,995.3,344.8z"/>
			
				<radialGradient id="SVGID_00000176756448003430735930000011986420123264460697_" cx="1010.579" cy="336.9893" r="31.8715" gradientUnits="userSpaceOnUse">
				<stop  offset="0.6335" style="stop-color:#666A6F"/>
				<stop  offset="0.7154" style="stop-color:#818790"/>
				<stop  offset="0.8435" style="stop-color:#A6B0BD"/>
				<stop  offset="0.9426" style="stop-color:#BCC9D9"/>
				<stop  offset="1" style="stop-color:#C5D2E3"/>
			</radialGradient>
			<path style="fill:url(#SVGID_00000176756448003430735930000011986420123264460697_);" d="M995.4,344.7c0.2-0.3,0.7-0.4,1.5,0
				c2.6,1.1,5.7,2.2,7.8,1.6c3.6-1,6.4-4.5,7.9-7.5c0,0,0,0,0,0c0.3-0.6,0.6-1.3,1-1.8c0.3-0.5,1.2-1.9,1.7-2.4
				c5.6-6.7,16-7.1,22.2-0.9c6.2,6.2,5.5,16.3-0.9,22.2c-0.5,0.5-2,1.4-2.5,1.8c-0.5,0.3-1,0.5-1.5,0.8c0,0,0,0,0,0
				c-3.2,1.5-7.1,4.5-7.9,8.4c-0.5,2.2,0.2,4.2,1.7,6.5c1.2,1.9,0.6,2.7-1.4,2.1l0,0c-3.9-1.4-14.5-9-17.6-11.3
				c-0.1,0-0.2-0.1-0.2-0.1s-0.1-0.1-0.1-0.2c-2.2-3-9-12-11.2-17.2C995.3,345.8,995.1,345.1,995.4,344.7z"/>
			
				<radialGradient id="SVGID_00000144337606897224981510000008098019199496409512_" cx="1010.5883" cy="336.9709" r="31.7726" gradientUnits="userSpaceOnUse">
				<stop  offset="0.6335" style="stop-color:#5A5F64"/>
				<stop  offset="0.7296" style="stop-color:#7B848C"/>
				<stop  offset="0.8513" style="stop-color:#A0ACBA"/>
				<stop  offset="0.9455" style="stop-color:#B7C6D6"/>
				<stop  offset="1" style="stop-color:#C0CFE0"/>
			</radialGradient>
			<path style="fill:url(#SVGID_00000144337606897224981510000008098019199496409512_);" d="M995.4,344.7c0.2-0.3,0.7-0.3,1.5,0.1
				c2.6,1.2,5.7,2.2,7.9,1.5c3.6-1,6.4-4.6,7.9-7.6c0,0,0,0,0,0c0.3-0.6,0.6-1.3,1-1.8c0.3-0.6,1.2-1.9,1.7-2.4
				c5.6-6.5,15.8-6.9,22-0.8c6.1,6.1,5.6,16.1-0.8,22c-0.6,0.5-1.9,1.4-2.6,1.8c-0.5,0.3-1,0.5-1.5,0.8c0,0,0,0,0,0
				c-3.2,1.5-7.2,4.5-8,8.5c-0.5,2.2,0.2,4.3,1.7,6.6c1.3,1.9,0.6,2.7-1.4,2l0,0c-4-1.5-14.6-9.1-17.5-11.2c-0.1,0-0.2-0.1-0.2-0.1
				s-0.1-0.1-0.1-0.2c-2-2.8-9-12-11.2-17.2C995.4,345.7,995.2,345,995.4,344.7z"/>
			
				<radialGradient id="SVGID_00000000202827722349428300000013053872778991561871_" cx="1010.5977" cy="336.9529" r="31.6756" gradientUnits="userSpaceOnUse">
				<stop  offset="0.6335" style="stop-color:#4F5459"/>
				<stop  offset="0.7438" style="stop-color:#78818B"/>
				<stop  offset="0.8591" style="stop-color:#9DA9B8"/>
				<stop  offset="0.9483" style="stop-color:#B3C3D4"/>
				<stop  offset="1" style="stop-color:#BCCCDE"/>
			</radialGradient>
			<path style="fill:url(#SVGID_00000000202827722349428300000013053872778991561871_);" d="M995.5,344.6c0.2-0.3,0.7-0.3,1.5,0.1
				c2.6,1.3,5.7,2.2,7.9,1.5c3.6-1.1,6.4-4.7,7.8-7.7c0,0,0,0,0,0c0.3-0.6,0.6-1.3,1-1.9c0.4-0.6,1.2-1.9,1.8-2.4
				c5.7-6.4,15.7-6.7,21.8-0.7c6.1,6.1,5.6,15.9-0.7,21.8c-0.6,0.6-1.9,1.5-2.6,1.9c-0.5,0.3-1,0.5-1.5,0.8c0,0,0,0,0,0
				c-3.3,1.5-7.2,4.6-8.1,8.5c-0.5,2.2,0.1,4.3,1.6,6.6c1.3,1.9,0.6,2.6-1.4,1.9l0,0c-4.1-1.6-14.7-9.2-17.4-11.2
				c-0.1,0-0.2-0.1-0.2-0.1s-0.1-0.1-0.1-0.2c-1.9-2.6-9-12.1-11.1-17.1C995.4,345.7,995.2,345,995.5,344.6z"/>
			
				<radialGradient id="SVGID_00000159458102488527620490000003539813844110959494_" cx="1010.6072" cy="336.9354" r="31.5808" gradientUnits="userSpaceOnUse">
				<stop  offset="0.6335" style="stop-color:#43484E"/>
				<stop  offset="0.7555" style="stop-color:#727C88"/>
				<stop  offset="0.8659" style="stop-color:#98A5B6"/>
				<stop  offset="0.9508" style="stop-color:#AEBFD2"/>
				<stop  offset="1" style="stop-color:#B7C8DC"/>
			</radialGradient>
			<path style="fill:url(#SVGID_00000159458102488527620490000003539813844110959494_);" d="M995.5,344.6c0.2-0.3,0.7-0.2,1.5,0.2
				c2.7,1.4,5.7,2.2,7.9,1.4c3.6-1.2,6.4-4.8,7.8-7.8c0,0,0,0,0,0c0.3-0.6,0.6-1.3,1-1.9c0.4-0.6,1.2-1.8,1.8-2.4
				c5.7-6.3,15.6-6.5,21.5-0.5c6,6,5.6,15.7-0.6,21.6c-0.6,0.6-1.9,1.5-2.6,1.9c-0.5,0.3-1,0.6-1.5,0.8c0,0,0,0,0,0
				c-3.3,1.5-7.3,4.6-8.2,8.5c-0.5,2.2,0,4.3,1.6,6.7c1.3,2,0.6,2.5-1.4,1.8l0,0c-4.2-1.7-14.8-9.3-17.2-11.1
				c-0.1-0.1-0.2-0.1-0.2-0.1s-0.1-0.1-0.1-0.2c-1.8-2.4-9-12.1-11.1-17C995.5,345.6,995.3,344.9,995.5,344.6z"/>
			
				<radialGradient id="SVGID_00000097465147114054289340000013781131067937901199_" cx="1010.6169" cy="336.9182" r="31.488" gradientUnits="userSpaceOnUse">
				<stop  offset="0.6335" style="stop-color:#373D43"/>
				<stop  offset="0.6423" style="stop-color:#3B4148"/>
				<stop  offset="0.7668" style="stop-color:#6E7986"/>
				<stop  offset="0.8721" style="stop-color:#93A2B4"/>
				<stop  offset="0.9531" style="stop-color:#AABCD0"/>
				<stop  offset="1" style="stop-color:#B3C5DA"/>
			</radialGradient>
			<path style="fill:url(#SVGID_00000097465147114054289340000013781131067937901199_);" d="M995.6,344.5c0.2-0.2,0.7-0.2,1.6,0.3
				c2.7,1.6,5.7,2.2,8,1.4c3.6-1.2,6.4-4.9,7.8-7.9c0,0,0,0,0,0c0.3-0.6,0.6-1.3,1-1.9c0.4-0.7,1.2-1.8,1.8-2.4
				c5.7-6.2,15.4-6.4,21.3-0.4c5.9,5.9,5.6,15.6-0.4,21.4c-0.7,0.6-1.8,1.5-2.6,1.9c-0.5,0.3-1,0.6-1.6,0.8c0,0,0,0,0,0
				c-3.3,1.5-7.4,4.6-8.3,8.6c-0.5,2.2,0,4.4,1.6,6.7c1.4,2,0.6,2.5-1.4,1.7l0,0c-4.3-1.8-14.9-9.4-17.1-11.1
				c-0.1-0.1-0.2-0.1-0.2-0.1s-0.1-0.1-0.1-0.2c-1.6-2.2-9-12.1-11.1-17C995.5,345.5,995.3,344.8,995.6,344.5z"/>
			
				<radialGradient id="SVGID_00000004535459936376271440000005368848404639420295_" cx="1010.6266" cy="336.9014" r="31.3972" gradientUnits="userSpaceOnUse">
				<stop  offset="0.6335" style="stop-color:#2B3138"/>
				<stop  offset="0.6579" style="stop-color:#363D46"/>
				<stop  offset="0.777" style="stop-color:#697584"/>
				<stop  offset="0.8777" style="stop-color:#8F9EB2"/>
				<stop  offset="0.9552" style="stop-color:#A5B8CE"/>
				<stop  offset="1" style="stop-color:#AEC1D8"/>
			</radialGradient>
			<path style="fill:url(#SVGID_00000004535459936376271440000005368848404639420295_);" d="M995.7,344.5c0.2-0.2,0.7-0.1,1.6,0.4
				c2.8,1.7,5.7,2.1,8,1.3c3.6-1.3,6.4-5,7.8-8c0,0,0,0,0,0c0.3-0.6,0.6-1.3,1-1.9c0.5-0.7,1.2-1.7,1.8-2.4c5.7-6,15.3-6.2,21.1-0.3
				c5.9,5.9,5.6,15.4-0.3,21.2c-0.7,0.7-1.8,1.5-2.6,2c-0.5,0.3-1,0.6-1.6,0.8c0,0,0,0,0,0c-3.3,1.5-7.4,4.6-8.4,8.6
				c-0.5,2.1-0.1,4.4,1.6,6.8c1.4,2,0.6,2.4-1.4,1.6l0,0c-4.4-1.9-15-9.6-17-11c-0.1-0.1-0.1-0.1-0.1-0.1s-0.1-0.1-0.1-0.2
				c-1.5-2-9-12.2-11.1-16.9C995.6,345.4,995.4,344.7,995.7,344.5z"/>
			
				<radialGradient id="SVGID_00000071536747934308675560000011495932321547634099_" cx="1010.6365" cy="336.885" r="31.3086" gradientUnits="userSpaceOnUse">
				<stop  offset="0.6335" style="stop-color:#20262D"/>
				<stop  offset="0.6705" style="stop-color:#323A43"/>
				<stop  offset="0.7851" style="stop-color:#657281"/>
				<stop  offset="0.8822" style="stop-color:#8A9BAF"/>
				<stop  offset="0.9568" style="stop-color:#A1B5CB"/>
				<stop  offset="1" style="stop-color:#AABED5"/>
			</radialGradient>
			<path style="fill:url(#SVGID_00000071536747934308675560000011495932321547634099_);" d="M995.7,344.4c0.2-0.2,0.8,0,1.6,0.5
				c2.8,1.8,5.7,2.1,8,1.3c3.6-1.3,6.4-5.1,7.7-8.1c0,0,0,0,0,0c0.3-0.6,0.6-1.3,1-1.9c0.5-0.8,1.2-1.7,1.9-2.4
				c5.7-5.9,15.1-6,20.9-0.2c5.8,5.8,5.6,15.2-0.2,20.9c-0.7,0.7-1.8,1.5-2.6,2c-0.5,0.3-1,0.6-1.6,0.8c0,0,0,0,0,0
				c-3.3,1.5-7.5,4.6-8.5,8.7c-0.5,2.1-0.1,4.4,1.6,6.9c1.4,2.1,0.6,2.3-1.4,1.5l0,0c-4.4-2-15-9.7-16.8-11
				c-0.1-0.1-0.1-0.1-0.1-0.1s0-0.1-0.1-0.2c-1.3-1.8-9-12.2-11-16.9C995.6,345.3,995.4,344.6,995.7,344.4z"/>
			
				<radialGradient id="SVGID_00000137104058623676722750000009258348171292701885_" cx="1010.6463" cy="336.8689" r="31.2221" gradientUnits="userSpaceOnUse">
				<stop  offset="0.6335" style="stop-color:#141A22"/>
				<stop  offset="0.6834" style="stop-color:#2D3641"/>
				<stop  offset="0.7935" style="stop-color:#606E7F"/>
				<stop  offset="0.8868" style="stop-color:#8697AD"/>
				<stop  offset="0.9585" style="stop-color:#9CB1C9"/>
				<stop  offset="1" style="stop-color:#A5BAD3"/>
			</radialGradient>
			<path style="fill:url(#SVGID_00000137104058623676722750000009258348171292701885_);" d="M995.8,344.4c0.2-0.2,0.8,0,1.7,0.6
				c2.9,1.9,5.7,2.1,8.1,1.2c3.6-1.4,6.4-5.2,7.7-8.2c0,0,0,0,0,0c0.3-0.6,0.6-1.3,1-1.9c0.5-0.8,1.2-1.7,1.9-2.4
				c5.7-5.8,15-5.8,20.7-0.1c5.7,5.7,5.7,15-0.1,20.7c-0.8,0.8-1.7,1.5-2.6,2c-0.5,0.3-1,0.6-1.6,0.8c0,0,0,0,0,0
				c-3.3,1.4-7.6,4.6-8.6,8.7c-0.5,2.1-0.2,4.5,1.5,6.9c1.5,2.1,0.6,2.3-1.4,1.4l0,0c-4.5-2.1-15.1-9.8-16.7-10.9
				c-0.1-0.1-0.1-0.1-0.1-0.1s0-0.1-0.1-0.2c-1.2-1.6-9-12.2-11-16.8C995.7,345.2,995.5,344.6,995.8,344.4z"/>
			
				<radialGradient id="SVGID_00000165222237270943111750000002034715419399569804_" cx="1010.6555" cy="336.8531" r="31.1368" gradientUnits="userSpaceOnUse">
				<stop  offset="0.6335" style="stop-color:#080F17"/>
				<stop  offset="0.6953" style="stop-color:#29333F"/>
				<stop  offset="0.8013" style="stop-color:#5C6B7D"/>
				<stop  offset="0.891" style="stop-color:#8194AB"/>
				<stop  offset="0.9601" style="stop-color:#98AEC7"/>
				<stop  offset="1" style="stop-color:#A1B7D1"/>
			</radialGradient>
			<path style="fill:url(#SVGID_00000165222237270943111750000002034715419399569804_);" d="M1016.2,333.6c-1.3,1.3-2.2,2.7-2.9,4.2
				l0,0c-2.2,5.1-8.4,12.4-15.8,7.2c-0.9-0.6-1.5-0.8-1.7-0.7c-1.7,1,11.4,18.8,11.4,18.8s23.2,17.1,18.1,9.7
				c-5.1-7.4,2.1-13.6,7.2-15.8l0,0c1.5-0.7,3-1.7,4.2-2.9c5.7-5.7,5.7-14.9,0-20.5C1031.1,327.9,1021.9,327.9,1016.2,333.6z"/>
		</g>
		<g>
			<path class="st0" d="M883.8,519.1c0-2.8-12.2-19.8-12.2-19.8c-5.5-4-38.7,25-31.6,32c7.1,7.1,19.2,5.9,24.8-2.3l1.4-2.4
				c1.5-3.4,4.5-7.4,8.5-7.9c2.3-0.3,3.8,0.9,5.7,2C881.7,521.4,883.8,521.1,883.8,519.1L883.8,519.1z"/>
			<path class="st1" d="M871.4,499.4c0,0,12.2,16.8,12.2,19.7l0,0c0,1-0.5,1.5-1.2,1.7c-0.7,0.2-1.7,0.1-2.5-0.3
				c-1.9-1-3.5-2.1-5.7-1.8c-3.3,0.5-5.9,3.3-7.5,6.2c0,0,0,0,0,0c-0.4,0.6-0.7,1.2-0.9,1.8c0,0-1.3,2.4-1.4,2.4
				c-6.3,7.6-17.6,9.2-24.6,2.2C832.9,524.3,866.2,495.5,871.4,499.4z"/>
			<path class="st2" d="M871.3,499.4c0,0,12.1,16.8,12.2,19.6l0,0c0,1-0.5,1.5-1.2,1.6c-0.8,0.2-1.7,0.1-2.5-0.4
				c-1.9-1-3.5-2.1-5.7-1.7c-3.3,0.5-5.9,3.4-7.5,6.2c0,0,0,0,0,0c-0.3,0.6-0.7,1.2-0.9,1.9c-0.1,0.1-1.3,2.3-1.4,2.4
				c-6.3,7.5-17.5,9-24.4,2.1C833,524.2,866.3,495.7,871.3,499.4z"/>
			<path class="st3" d="M871.2,499.4c0,0,12.1,16.7,12.1,19.5l0,0c0,0.9-0.5,1.4-1.2,1.5c-0.8,0.1-1.7,0-2.5-0.4
				c-1.9-1-3.6-2-5.8-1.6c-3.3,0.6-5.9,3.5-7.5,6.3c0,0,0,0,0,0c-0.3,0.6-0.7,1.3-0.9,1.9c-0.1,0.1-1.3,2.3-1.4,2.4
				c-6.3,7.4-17.3,8.9-24.2,2C833,524.2,866.5,496,871.2,499.4z"/>
			<path class="st4" d="M871.1,499.5c0,0,12,16.6,12.1,19.5l0,0c0,0.9-0.5,1.4-1.3,1.4c-0.8,0.1-1.7-0.1-2.5-0.5
				c-1.9-1-3.6-1.9-5.8-1.5c-3.3,0.6-5.9,3.6-7.4,6.4c0,0,0,0,0,0c-0.3,0.6-0.7,1.3-0.9,1.9c-0.1,0.2-1.3,2.2-1.5,2.4
				c-6.2,7.3-17.2,8.7-24,1.9C833.1,524.2,866.6,496.2,871.1,499.5z"/>
			<path class="st5" d="M871,499.5c0,0,12,16.5,12.1,19.4l0,0c0,0.9-0.5,1.3-1.3,1.3c-0.8,0-1.7-0.1-2.5-0.5c-2-1-3.7-1.8-5.8-1.4
				c-3.3,0.7-5.8,3.7-7.4,6.5c0,0,0,0,0,0c-0.3,0.6-0.7,1.3-1,1.9c-0.1,0.2-1.3,2.2-1.5,2.4c-6.2,7.2-17.1,8.5-23.8,1.8
				C833.1,524.2,866.8,496.4,871,499.5z"/>
			<path class="st6" d="M870.9,499.6c0,0,11.9,16.4,12,19.3l0,0c0,0.9-0.4,1.3-1.3,1.2c-0.8,0-1.7-0.2-2.5-0.6c-2-1-3.7-1.7-5.9-1.3
				c-3.3,0.7-5.8,3.8-7.4,6.6c0,0,0,0,0,0c-0.3,0.6-0.7,1.3-1,1.9c-0.2,0.2-1.3,2.2-1.5,2.4c-6.1,7.1-16.9,8.3-23.6,1.7
				C833.2,524.2,866.9,496.7,870.9,499.6z"/>
			<path class="st7" d="M870.7,499.6c0,0,11.9,16.3,12,19.3l0,0c0,0.9-0.4,1.2-1.4,1.1c-0.8-0.1-1.7-0.2-2.5-0.6
				c-2-1-3.8-1.7-5.9-1.1c-3.3,0.8-5.8,3.8-7.3,6.7c0,0,0,0,0,0c-0.3,0.6-0.7,1.3-1,1.9c-0.2,0.3-1.3,2.1-1.5,2.4
				c-6.1,7-16.8,8.2-23.4,1.6C833.2,524.2,867.1,496.9,870.7,499.6z"/>
			<path class="st8" d="M870.6,499.6c0,0,11.8,16.2,12,19.2l0,0c0,0.9-0.4,1.2-1.4,1c-0.8-0.1-1.7-0.3-2.5-0.7c-2-1-3.8-1.6-5.9-1
				c-3.3,0.9-5.8,3.9-7.3,6.8c0,0,0,0,0,0c-0.3,0.6-0.7,1.3-1,1.9c-0.2,0.3-1.3,2.1-1.6,2.4c-6.1,6.9-16.7,8-23.2,1.4
				C833.3,524.2,867.2,497.1,870.6,499.6z"/>
			<path class="st9" d="M870.5,499.7c0,0,11.8,16.2,12,19.1l0,0c0,0.9-0.4,1.2-1.4,1c-0.8-0.2-1.7-0.3-2.5-0.7c-2-1-3.9-1.5-6-0.9
				c-3.3,0.9-5.8,4-7.3,6.9c0,0,0,0,0,0c-0.3,0.6-0.7,1.3-1,1.9c-0.2,0.4-1.3,2-1.6,2.4c-6,6.8-16.5,7.8-23,1.3
				C833.3,524.2,867.4,497.4,870.5,499.7z"/>
			<path class="st10" d="M870.4,499.7c0,0,11.7,16.1,11.9,19l0,0c0.1,0.9-0.4,1.1-1.5,0.9c-0.8-0.2-1.7-0.4-2.5-0.8
				c-2.1-0.9-3.9-1.4-6-0.8c-3.3,1-5.8,4.1-7.2,7c0,0,0,0,0,0c-0.3,0.6-0.7,1.3-1,1.9c-0.3,0.4-1.3,2-1.6,2.4
				c-6,6.7-16.4,7.6-22.8,1.2C833.4,524.2,867.5,497.6,870.4,499.7z"/>
			<path class="st11" d="M870.3,499.8c0,0,11.7,16,11.9,19l0,0c0.1,0.9-0.4,1.1-1.5,0.8c-0.8-0.2-1.7-0.5-2.5-0.8
				c-2.1-0.9-4-1.3-6-0.7c-3.3,1-5.8,4.2-7.2,7.1c0,0,0,0,0,0c-0.3,0.6-0.7,1.3-1,1.9c-0.3,0.4-1.3,2-1.6,2.4
				c-6,6.6-16.2,7.4-22.6,1.1C833.4,524.1,867.7,497.8,870.3,499.8z"/>
			<path class="st12" d="M870.2,499.8c0,0,11.6,15.9,11.9,18.9l0,0c0.1,0.8-0.4,1.1-1.5,0.7c-0.8-0.3-1.7-0.5-2.5-0.9
				c-2.1-0.9-4-1.2-6.1-0.6c-3.3,1.1-5.8,4.3-7.2,7.2c0,0,0,0,0,0c-0.3,0.6-0.7,1.3-1,1.9c-0.3,0.5-1.3,1.9-1.7,2.4
				c-5.9,6.5-16.1,7.3-22.4,1C833.5,524.1,867.8,498.1,870.2,499.8z"/>
			<path class="st13" d="M870.1,499.9c0,0,11.6,15.8,11.8,18.8l0,0c0.1,0.8-0.4,1-1.6,0.6c-0.8-0.3-1.7-0.6-2.5-0.9
				c-2.1-0.9-4.1-1.2-6.1-0.4c-3.3,1.2-5.8,4.4-7.2,7.3c0,0,0,0,0,0c-0.3,0.6-0.7,1.3-1,1.9c-0.3,0.5-1.3,1.9-1.7,2.4
				c-5.9,6.4-16,7.1-22.2,0.9C833.5,524.1,868,498.3,870.1,499.9z"/>
			<path class="st14" d="M869.9,499.9c0,0,11.5,15.7,11.8,18.8l0,0c0.1,0.8-0.4,1-1.6,0.5c-0.8-0.3-1.7-0.6-2.5-1
				c-2.2-0.9-4.1-1.1-6.1-0.3c-3.3,1.2-5.8,4.5-7.1,7.4c0,0,0,0,0,0c-0.3,0.6-0.7,1.3-1,1.9c-0.4,0.5-1.2,1.8-1.7,2.3
				c-5.9,6.3-15.8,6.9-22,0.8C833.6,524.1,868.1,498.6,869.9,499.9z"/>
			<path class="st15" d="M869.8,499.9c0,0,11.4,15.6,11.8,18.7l0,0c0.1,0.8-0.4,1-1.6,0.4c-0.8-0.4-1.7-0.7-2.5-1
				c-2.2-0.9-4.2-1-6.2-0.2c-3.2,1.3-5.8,4.6-7.1,7.4c0,0,0,0,0,0c-0.3,0.6-0.7,1.3-1,1.9c-0.4,0.6-1.2,1.8-1.7,2.3
				c-5.8,6.2-15.7,6.7-21.8,0.7C833.6,524.1,868.3,498.8,869.8,499.9z"/>
			<path class="st16" d="M869.7,500c0,0,11.4,15.6,11.7,18.6l0,0c0.1,0.8-0.4,0.9-1.7,0.3c-0.8-0.4-1.7-0.7-2.5-1.1
				c-2.2-0.9-4.2-0.9-6.2-0.1c-3.2,1.3-5.7,4.7-7.1,7.5c0,0,0,0,0,0c-0.3,0.6-0.7,1.3-1,1.9c-0.4,0.6-1.2,1.8-1.8,2.3
				c-5.8,6.1-15.6,6.6-21.6,0.6C833.7,524.1,868.4,499,869.7,500z"/>
			<path class="st17" d="M869.6,500c0,0,11.3,15.5,11.7,18.5l0,0c0.1,0.8-0.4,0.9-1.7,0.2c-0.8-0.4-1.7-0.8-2.5-1.1
				c-2.2-0.9-4.3-0.8-6.2,0c-3.2,1.4-5.7,4.8-7,7.6c0,0,0,0,0,0c-0.3,0.7-0.7,1.3-1,1.9c-0.4,0.7-1.2,1.7-1.8,2.3
				c-5.8,6.1-15.4,6.4-21.4,0.4C833.7,524.1,868.5,499.3,869.6,500z"/>
			<path class="st18" d="M869.5,500.1c0,0,11.3,15.4,11.7,18.5l0,0c0.1,0.8-0.4,0.9-1.7,0.1c-0.8-0.5-1.7-0.8-2.5-1.2
				c-2.2-0.8-4.3-0.7-6.3,0.2c-3.2,1.5-5.7,4.9-7,7.7c0,0,0,0,0,0c-0.3,0.7-0.7,1.3-1,1.9c-0.5,0.7-1.2,1.7-1.8,2.3
				c-5.8,6-15.3,6.2-21.2,0.3C833.8,524.1,868.7,499.5,869.5,500.1z"/>
			<path class="st19" d="M869.4,500.1c0,0,11.2,15.3,11.6,18.4l0,0c0.1,0.8-0.4,0.9-1.8,0c-0.8-0.5-1.7-0.9-2.5-1.2
				c-2.3-0.8-4.4-0.6-6.3,0.3c-3.2,1.5-5.7,5-7,7.8c0,0,0,0,0,0c-0.3,0.7-0.7,1.3-1,1.9c-0.5,0.7-1.2,1.7-1.8,2.3
				c-5.7,5.9-15.1,6-20.9,0.2C833.9,524,868.8,499.7,869.4,500.1z"/>
			<path class="st20" d="M869.2,500.1c0,0,11.2,15.2,11.6,18.3l0,0c0.1,0.8-0.4,0.8-1.8-0.1c-0.8-0.6-1.7-1-2.5-1.3
				c-2.3-0.8-4.4-0.6-6.3,0.4c-3.2,1.6-5.7,5.1-6.9,7.9c0,0,0,0,0,0c-0.3,0.7-0.6,1.3-1,1.9c-0.5,0.8-1.2,1.6-1.9,2.3
				c-5.7,5.8-15,5.9-20.7,0.1C833.9,524,869,500,869.2,500.1z"/>
			<path class="st21" d="M869.1,500.2c0,0,11.1,15.1,11.6,18.3c0.1,0.7-0.4,0.8-1.8-0.2c-7.4-5.1-13.6,2.1-15.8,7.2l0,0
				c-0.7,1.5-1.7,3-2.9,4.2c-5.7,5.7-14.9,5.7-20.5,0C834,524,869.1,500.2,869.1,500.2z"/>
		</g>
		<g>
			
				<linearGradient id="SVGID_00000130609295400947285050000002806213202283122871_" gradientUnits="userSpaceOnUse" x1="1009.7446" y1="332.8017" x2="1031.6113" y2="358.4445">
				<stop  offset="0" style="stop-color:#FFFFFF"/>
				<stop  offset="1" style="stop-color:#9AA5B5"/>
			</linearGradient>
			<path style="fill:url(#SVGID_00000130609295400947285050000002806213202283122871_);" d="M1015.8,331.7c-1.3,1.3-2.3,2.8-3,4.4
				l0,0c-2.2,5.2-8.7,12.7-16.3,7.4c-7.6-5.3,10,18.7,10,18.7s24,17.6,18.7,10c-5.3-7.6,2.2-14,7.4-16.3l0,0c1.6-0.7,3.1-1.7,4.4-3
				c5.9-5.9,5.9-15.3,0-21.2C1031.1,325.9,1021.7,325.9,1015.8,331.7z"/>
			
				<linearGradient id="SVGID_00000016758837449261539420000015095853869371427731_" gradientUnits="userSpaceOnUse" x1="1037.136" y1="331.0134" x2="1010.4404" y2="358.2773">
				<stop  offset="0" style="stop-color:#FEFEFE"/>
				<stop  offset="0.2693" style="stop-color:#FAFAFA"/>
				<stop  offset="1" style="stop-color:#F7F7F7"/>
			</linearGradient>
			<path style="fill:url(#SVGID_00000016758837449261539420000015095853869371427731_);" d="M1023.8,372.2
				c-3.4-1.7-10.2-6.4-16.4-10.9c-4.5-6.1-9.2-13-10.9-16.4c1.7,1,3.5,1.6,5.2,1.6c5.2,0,9.2-4.5,11.2-8.1l0,0.1l0.9-1.9
				c0.7-1.5,1.6-2.9,2.8-4c2.6-2.6,6.1-4,9.8-4c3.7,0,7.2,1.4,9.8,4c5.4,5.4,5.4,14.1,0,19.5c-1.1,1.1-2.5,2.1-4,2.8l-1.9,0.8
				l0.1,0.1c-3.2,1.8-6.7,4.8-7.8,8.7C1021.8,367.1,1022.2,369.7,1023.8,372.2z"/>
			<g>
				
					<linearGradient id="SVGID_00000004546859768170297050000005780408419902303417_" gradientUnits="userSpaceOnUse" x1="1363.7103" y1="98.2835" x2="1350.6848" y2="112.2706" gradientTransform="matrix(-0.4387 -0.8986 0.8986 -0.4387 1525.8713 1609.6866)">
					<stop  offset="0" style="stop-color:#99A2B0"/>
					<stop  offset="1" style="stop-color:#EAEBEC"/>
				</linearGradient>
				<path style="fill:url(#SVGID_00000004546859768170297050000005780408419902303417_);" d="M1021,335.4c4.7-2.3,10.4-0.3,12.7,4.4
					c2.3,4.7,0.4,10.4-4.4,12.7c-4.7,2.3-10.4,0.4-12.7-4.4C1014.3,343.4,1016.3,337.7,1021,335.4z"/>
				
					<radialGradient id="SVGID_00000122695521266779815800000012677602833216162438_" cx="1122.4062" cy="369.7224" r="9.5047" gradientTransform="matrix(0.204 -0.979 0.979 0.204 434.2587 1367.3698)" gradientUnits="userSpaceOnUse">
					<stop  offset="0.8297" style="stop-color:#575560"/>
					<stop  offset="0.8351" style="stop-color:#615F69"/>
					<stop  offset="0.8646" style="stop-color:#918F97"/>
					<stop  offset="0.8938" style="stop-color:#B8B7BC"/>
					<stop  offset="0.9224" style="stop-color:#D7D7D9"/>
					<stop  offset="0.95" style="stop-color:#EDEDEE"/>
					<stop  offset="0.9764" style="stop-color:#FAFAFB"/>
					<stop  offset="1" style="stop-color:#FFFFFF"/>
				</radialGradient>
				<path style="fill:url(#SVGID_00000122695521266779815800000012677602833216162438_);" d="M1016.6,348.1c2.3,4.7,8,6.7,12.7,4.4
					c4.7-2.3,6.7-8,4.4-12.7c-2.3-4.7-8-6.7-12.7-4.4C1016.3,337.7,1014.3,343.4,1016.6,348.1z M1031.5,340.9
					c1.7,3.5,0.3,7.7-3.2,9.5c-3.5,1.7-7.7,0.3-9.5-3.2c-1.7-3.5-0.3-7.7,3.3-9.5C1025.6,335.9,1029.8,337.4,1031.5,340.9z"/>
				
					<radialGradient id="SVGID_00000131367339005270192720000004195882775512927407_" cx="651.1141" cy="650.2438" r="7.0641" gradientTransform="matrix(0.8431 0.5376 -0.5376 0.8431 825.8024 -554.2965)" gradientUnits="userSpaceOnUse">
					<stop  offset="0.5584" style="stop-color:#65738A"/>
					<stop  offset="0.7885" style="stop-color:#647288"/>
					<stop  offset="0.8714" style="stop-color:#626D81"/>
					<stop  offset="0.9305" style="stop-color:#5D6476"/>
					<stop  offset="0.978" style="stop-color:#565765"/>
					<stop  offset="1" style="stop-color:#524F5A"/>
				</radialGradient>
				<path style="fill:url(#SVGID_00000131367339005270192720000004195882775512927407_);" d="M1031.1,347.8
					c-2.1,3.3-6.5,4.2-9.7,2.2c-3.3-2.1-4.3-6.5-2.2-9.8c2.1-3.3,6.5-4.3,9.8-2.2C1032.3,340.1,1033.2,344.5,1031.1,347.8z"/>
				
					<radialGradient id="SVGID_00000146467784256000232280000000423819414406731438_" cx="646.8095" cy="647.6135" r="12.5988" gradientTransform="matrix(0.8431 0.5376 -0.5376 0.8431 825.8024 -554.2965)" gradientUnits="userSpaceOnUse">
					<stop  offset="0" style="stop-color:#D5D8DB"/>
					<stop  offset="1" style="stop-color:#4B4955"/>
				</radialGradient>
				<path style="fill:url(#SVGID_00000146467784256000232280000000423819414406731438_);" d="M1028,336.8c-3.4-1.3-7.3-0.2-9.4,3
					c-2,3.2-1.4,7.3,1.2,9.8L1028,336.8z"/>
				
					<radialGradient id="SVGID_00000017489978983932010010000005123932281740890513_" cx="647.8614" cy="647.6116" r="12.279" gradientTransform="matrix(0.8431 0.5376 -0.5376 0.8431 825.8024 -554.2965)" gradientUnits="userSpaceOnUse">
					<stop  offset="0" style="stop-color:#D5D8DB"/>
					<stop  offset="1" style="stop-color:#4B4955"/>
				</radialGradient>
				<path style="fill:url(#SVGID_00000017489978983932010010000005123932281740890513_);" d="M1030.5,338.4l-8.1,12.8
					c3.4,1.3,7.3,0.1,9.3-3C1033.7,345,1033.1,340.9,1030.5,338.4z"/>
				<polygon class="st54" points="1028,336.8 1027.9,337.5 1020.4,349.2 1019.9,349.6 				"/>
				<polygon class="st55" points="1030.5,338.4 1030,338.8 1022.5,350.5 1022.4,351.2 				"/>
			</g>
		</g>
		<g>
			
				<linearGradient id="SVGID_00000076591327160990972290000013737302881463324052_" gradientUnits="userSpaceOnUse" x1="760.0407" y1="786.1968" x2="781.907" y2="811.8391" gradientTransform="matrix(-1 0 0 -1 1625.7529 1315.4258)">
				<stop  offset="0" style="stop-color:#9AA5B5"/>
				<stop  offset="1" style="stop-color:#FFFFFF"/>
			</linearGradient>
			<path style="fill:url(#SVGID_00000076591327160990972290000013737302881463324052_);" d="M859.7,530.3c1.3-1.3,2.3-2.8,3-4.4l0,0
				c2.2-5.2,8.7-12.7,16.3-7.4c7.6,5.3-10.1-18.7-10.1-18.7s-24-17.6-18.7-10c5.3,7.6-2.2,14-7.4,16.3l0,0c-1.6,0.7-3.1,1.7-4.4,3
				c-5.9,5.8-5.9,15.3,0,21.2C844.3,536.2,853.8,536.2,859.7,530.3z"/>
			
				<linearGradient id="SVGID_00000085945189110063464380000004700985417533995440_" gradientUnits="userSpaceOnUse" x1="865.6394" y1="503.127" x2="838.9466" y2="529.5357">
				<stop  offset="0" style="stop-color:#FEFEFE"/>
				<stop  offset="0.2693" style="stop-color:#FAFAFA"/>
				<stop  offset="1" style="stop-color:#F7F7F7"/>
			</linearGradient>
			<path style="fill:url(#SVGID_00000085945189110063464380000004700985417533995440_);" d="M851.7,489.8
				c3.4,1.7,10.2,6.4,16.4,10.9c4.5,6.1,9.2,13,10.9,16.4c-1.7-1-3.5-1.6-5.2-1.6c-5.2,0-9.2,4.5-11.2,8.1l0-0.1l-0.9,1.9
				c-0.7,1.5-1.6,2.9-2.8,4c-2.6,2.6-6.1,4-9.8,4c-3.7,0-7.1-1.4-9.8-4c-5.4-5.4-5.4-14.1,0-19.5c1.2-1.1,2.5-2.1,4-2.8l1.9-0.9
				l-0.1,0c3.2-1.8,6.7-4.8,7.8-8.7C853.6,494.9,853.2,492.4,851.7,489.8z"/>
			<g>
				
					<linearGradient id="SVGID_00000153696283479715580220000002388699324123895196_" gradientUnits="userSpaceOnUse" x1="1257.6072" y1="-294.3838" x2="1244.584" y2="-280.3991" gradientTransform="matrix(-4.500000e-03 -1 1 -4.500000e-03 1143.2007 1767.7893)">
					<stop  offset="0" style="stop-color:#99A2B0"/>
					<stop  offset="1" style="stop-color:#EAEBEC"/>
				</linearGradient>
				<path style="fill:url(#SVGID_00000153696283479715580220000002388699324123895196_);" d="M850.2,508.6c5.3,0,9.5,4.2,9.6,9.5
					c0,5.3-4.2,9.5-9.5,9.6c-5.3,0-9.5-4.2-9.6-9.5C840.7,512.9,845,508.6,850.2,508.6z"/>
				
					<radialGradient id="SVGID_00000120551754988109860750000007959096643568180664_" cx="719.8331" cy="611.4878" r="9.5069" gradientTransform="matrix(0.9006 0.4346 -0.4346 0.9006 467.7395 -345.4754)" gradientUnits="userSpaceOnUse">
					<stop  offset="0.8297" style="stop-color:#575560"/>
					<stop  offset="0.8351" style="stop-color:#615F69"/>
					<stop  offset="0.8646" style="stop-color:#918F97"/>
					<stop  offset="0.8938" style="stop-color:#B8B7BC"/>
					<stop  offset="0.9224" style="stop-color:#D7D7D9"/>
					<stop  offset="0.95" style="stop-color:#EDEDEE"/>
					<stop  offset="0.9764" style="stop-color:#FAFAFB"/>
					<stop  offset="1" style="stop-color:#FFFFFF"/>
				</radialGradient>
				<path style="fill:url(#SVGID_00000120551754988109860750000007959096643568180664_);" d="M840.8,518.1c0,5.3,4.3,9.5,9.5,9.5
					c5.2,0,9.5-4.3,9.5-9.5c0-5.3-4.3-9.5-9.5-9.5C845,508.6,840.7,512.9,840.8,518.1z M857.3,518c0,3.9-3.1,7.1-7,7.1
					c-3.9,0-7.1-3.1-7.1-7c0-3.9,3.1-7.1,7-7.1C854.1,511,857.3,514.1,857.3,518z"/>
				
					<radialGradient id="SVGID_00000017496276803571911360000012552977688327355061_" cx="536.8251" cy="1039.9381" r="7.0628" gradientTransform="matrix(0.5257 0.8506 -0.8506 0.5257 1452.6274 -485.2476)" gradientUnits="userSpaceOnUse">
					<stop  offset="0.5584" style="stop-color:#65738A"/>
					<stop  offset="0.7885" style="stop-color:#647288"/>
					<stop  offset="0.8714" style="stop-color:#626D81"/>
					<stop  offset="0.9305" style="stop-color:#5D6476"/>
					<stop  offset="0.978" style="stop-color:#565765"/>
					<stop  offset="1" style="stop-color:#524F5A"/>
				</radialGradient>
				<path style="fill:url(#SVGID_00000017496276803571911360000012552977688327355061_);" d="M854,524.1c-3.3,2.1-7.7,1-9.7-2.3
					c-2.1-3.3-1-7.7,2.3-9.7c3.3-2.1,7.7-1,9.7,2.3C858.3,517.7,857.3,522,854,524.1z"/>
				
					<radialGradient id="SVGID_00000132789693415283040800000007790510700613720449_" cx="532.5247" cy="1037.3069" r="12.6027" gradientTransform="matrix(0.5257 0.8506 -0.8506 0.5257 1452.6274 -485.2476)" gradientUnits="userSpaceOnUse">
					<stop  offset="0" style="stop-color:#D5D8DB"/>
					<stop  offset="1" style="stop-color:#4B4955"/>
				</radialGradient>
				<path style="fill:url(#SVGID_00000132789693415283040800000007790510700613720449_);" d="M855.9,512.8c-2.5-2.7-6.5-3.3-9.7-1.4
					c-3.2,2-4.4,5.9-3.1,9.3L855.9,512.8z"/>
				
					<radialGradient id="SVGID_00000011016276367953257080000000562150897265446800_" cx="533.5702" cy="1037.3029" r="12.283" gradientTransform="matrix(0.5257 0.8506 -0.8506 0.5257 1452.6274 -485.2476)" gradientUnits="userSpaceOnUse">
					<stop  offset="0" style="stop-color:#D5D8DB"/>
					<stop  offset="1" style="stop-color:#4B4955"/>
				</radialGradient>
				<path style="fill:url(#SVGID_00000011016276367953257080000000562150897265446800_);" d="M857.5,515.4l-12.9,8
					c2.5,2.6,6.5,3.3,9.7,1.3C857.5,522.7,858.8,518.8,857.5,515.4z"/>
				<polygon class="st54" points="855.9,512.8 855.6,513.4 843.7,520.7 843,520.8 				"/>
				<polygon class="st55" points="857.5,515.4 856.8,515.5 845,522.8 844.6,523.4 				"/>
			</g>
		</g>
		<g>
			
				<linearGradient id="SVGID_00000015334297222760804040000012725500559918757536_" gradientUnits="userSpaceOnUse" x1="839.5803" y1="331.0133" x2="869.463" y2="362.0138">
				<stop  offset="0" style="stop-color:#FFFFFF"/>
				<stop  offset="0.4358" style="stop-color:#9AA5B5"/>
				<stop  offset="1" style="stop-color:#FFFFFF"/>
			</linearGradient>
			<path style="fill:url(#SVGID_00000015334297222760804040000012725500559918757536_);" d="M839.3,353c1.3,1.3,2.8,2.3,4.4,3l0,0
				c5.2,2.2,12.7,8.7,7.4,16.3c-5.3,7.6,18.7-10.1,18.7-10.1s17.6-24,10-18.7c-7.6,5.3-14-2.2-16.3-7.4l0,0c-0.7-1.6-1.7-3.1-3-4.4
				c-5.9-5.9-15.3-5.9-21.2,0C833.5,337.6,833.5,347.1,839.3,353z"/>
			
				<linearGradient id="SVGID_00000168809024863513097910000005501187840607002268_" gradientUnits="userSpaceOnUse" x1="864.7979" y1="357.3165" x2="839.0263" y2="333.3195">
				<stop  offset="0" style="stop-color:#FEFEFE"/>
				<stop  offset="0.2693" style="stop-color:#FAFAFA"/>
				<stop  offset="1" style="stop-color:#F7F7F7"/>
			</linearGradient>
			<path style="fill:url(#SVGID_00000168809024863513097910000005501187840607002268_);" d="M879.8,345c-1.7,3.4-6.4,10.2-10.9,16.4
				c-6.1,4.5-13,9.1-16.4,10.9c1-1.7,1.6-3.5,1.6-5.2c0-5.2-4.5-9.2-8.1-11.2l0.1,0l-1.9-0.9c-1.5-0.7-2.9-1.6-4-2.8
				c-2.6-2.6-4-6.1-4-9.8c0-3.7,1.4-7.1,4-9.8c5.4-5.4,14.1-5.4,19.5,0c1.2,1.1,2.1,2.5,2.8,4l0.8,1.9l0.1-0.1
				c1.8,3.2,4.8,6.7,8.7,7.8C874.7,347,877.3,346.5,879.8,345z"/>
			<g>
				
					<linearGradient id="SVGID_00000129914390114509498700000017820383061605322389_" gradientUnits="userSpaceOnUse" x1="1410.0043" y1="-127.6319" x2="1396.9813" y2="-113.6475" gradientTransform="matrix(-0.3982 -0.9173 0.9173 -0.3982 1521.0011 1582.9282)">
					<stop  offset="0" style="stop-color:#99A2B0"/>
					<stop  offset="1" style="stop-color:#EAEBEC"/>
				</linearGradient>
				<path style="fill:url(#SVGID_00000129914390114509498700000017820383061605322389_);" d="M847.8,334.9
					c4.8-2.1,10.4,0.1,12.5,4.9c2.1,4.8-0.1,10.4-4.9,12.5c-4.8,2.1-10.4-0.1-12.5-4.9C840.8,342.6,843,336.9,847.8,334.9z"/>
				
					<radialGradient id="SVGID_00000005240760811537678740000015922326808956896438_" cx="802.7536" cy="401.5812" r="9.5067" gradientTransform="matrix(0.999 4.450000e-02 -4.450000e-02 0.999 67.5036 -93.32)" gradientUnits="userSpaceOnUse">
					<stop  offset="0.8297" style="stop-color:#575560"/>
					<stop  offset="0.8351" style="stop-color:#615F69"/>
					<stop  offset="0.8646" style="stop-color:#918F97"/>
					<stop  offset="0.8938" style="stop-color:#B8B7BC"/>
					<stop  offset="0.9224" style="stop-color:#D7D7D9"/>
					<stop  offset="0.95" style="stop-color:#EDEDEE"/>
					<stop  offset="0.9764" style="stop-color:#FAFAFB"/>
					<stop  offset="1" style="stop-color:#FFFFFF"/>
				</radialGradient>
				<path style="fill:url(#SVGID_00000005240760811537678740000015922326808956896438_);" d="M842.9,347.4c2.1,4.8,7.7,7,12.5,4.9
					c4.8-2.1,7-7.7,4.9-12.5c-2.1-4.8-7.7-7-12.5-4.9C843,337,840.8,342.6,842.9,347.4z M858.1,340.8c1.5,3.6-0.1,7.7-3.7,9.3
					c-3.6,1.6-7.7-0.1-9.3-3.7c-1.6-3.6,0.1-7.7,3.7-9.3C852.3,335.5,856.5,337.2,858.1,340.8z"/>
				
					<radialGradient id="SVGID_00000006693707686385590350000003015358935309518214_" cx="493.9402" cy="816.9232" r="7.0633" gradientTransform="matrix(0.8184 0.5747 -0.5747 0.8184 916.8251 -608.8494)" gradientUnits="userSpaceOnUse">
					<stop  offset="0.5584" style="stop-color:#65738A"/>
					<stop  offset="0.7885" style="stop-color:#647288"/>
					<stop  offset="0.8714" style="stop-color:#626D81"/>
					<stop  offset="0.9305" style="stop-color:#5D6476"/>
					<stop  offset="0.978" style="stop-color:#565765"/>
					<stop  offset="1" style="stop-color:#524F5A"/>
				</radialGradient>
				<path style="fill:url(#SVGID_00000006693707686385590350000003015358935309518214_);" d="M857.4,347.6c-2.2,3.2-6.6,4-9.8,1.7
					c-3.2-2.2-4-6.6-1.7-9.8c2.2-3.2,6.6-4,9.8-1.7C858.8,340,859.6,344.5,857.4,347.6z"/>
				
					<radialGradient id="SVGID_00000026878605421748845620000013947018682052444080_" cx="489.6377" cy="814.2918" r="12.6023" gradientTransform="matrix(0.8184 0.5747 -0.5747 0.8184 916.8251 -608.8494)" gradientUnits="userSpaceOnUse">
					<stop  offset="0" style="stop-color:#D5D8DB"/>
					<stop  offset="1" style="stop-color:#4B4955"/>
				</radialGradient>
				<path style="fill:url(#SVGID_00000026878605421748845620000013947018682052444080_);" d="M854.7,336.5c-3.3-1.5-7.3-0.5-9.5,2.6
					c-2.2,3.1-1.7,7.2,0.8,9.8L854.7,336.5z"/>
				
					<radialGradient id="SVGID_00000021116242876515716350000012391317811389154453_" cx="490.6852" cy="814.2876" r="12.2821" gradientTransform="matrix(0.8184 0.5747 -0.5747 0.8184 916.8251 -608.8494)" gradientUnits="userSpaceOnUse">
					<stop  offset="0" style="stop-color:#D5D8DB"/>
					<stop  offset="1" style="stop-color:#4B4955"/>
				</radialGradient>
				<path style="fill:url(#SVGID_00000021116242876515716350000012391317811389154453_);" d="M857.2,338.3l-8.7,12.4
					c3.3,1.5,7.3,0.5,9.4-2.6C860.1,345,859.7,340.9,857.2,338.3z"/>
				<polygon class="st54" points="854.7,336.5 854.6,337.2 846.6,348.6 846,348.9 				"/>
				<polygon class="st55" points="857.2,338.3 856.6,338.6 848.6,350 848.5,350.7 				"/>
			</g>
		</g>
		<g>
			
				<linearGradient id="SVGID_00000122717712636717258080000001217543067204443300_" gradientUnits="userSpaceOnUse" x1="1224.9379" y1="729.3663" x2="1254.8198" y2="760.366" gradientTransform="matrix(-1 0 0 -1 2262.3594 1260.5137)">
				<stop  offset="0" style="stop-color:#9AA5B5"/>
				<stop  offset="0.5709" style="stop-color:#FFFFFF"/>
				<stop  offset="0.6865" style="stop-color:#FCFCFD"/>
				<stop  offset="0.767" style="stop-color:#F3F4F6"/>
				<stop  offset="0.8369" style="stop-color:#E4E7EB"/>
				<stop  offset="0.9006" style="stop-color:#CED3DB"/>
				<stop  offset="0.9597" style="stop-color:#B2BAC6"/>
				<stop  offset="1" style="stop-color:#9AA5B5"/>
			</linearGradient>
			<path style="fill:url(#SVGID_00000122717712636717258080000001217543067204443300_);" d="M1037.7,509.2c-1.3-1.3-2.8-2.3-4.4-3
				l0,0c-5.2-2.2-12.7-8.7-7.4-16.3c5.3-7.6-18.7,10.1-18.7,10.1s-17.6,24-10.1,18.7c7.6-5.3,14,2.2,16.3,7.4l0,0
				c0.7,1.6,1.7,3.1,3,4.4c5.9,5.9,15.3,5.9,21.2,0C1043.5,524.5,1043.5,515,1037.7,509.2z"/>
			<path class="st71" d="M997.2,517.2c1.7-3.3,6.4-10.2,10.9-16.4c6.1-4.5,13-9.2,16.4-10.9c-1,1.7-1.6,3.5-1.6,5.2
				c0,5.2,4.5,9.2,8.1,11.2l-0.1,0l1.9,0.9c1.5,0.7,2.9,1.6,4,2.8c2.6,2.6,4,6.1,4,9.8c0,3.7-1.4,7.1-4,9.8
				c-5.4,5.4-14.1,5.4-19.5,0c-1.2-1.1-2.1-2.5-2.8-4l-0.8-1.8l0,0.1c-1.8-3.2-4.8-6.7-8.7-7.8
				C1002.3,515.2,999.7,515.6,997.2,517.2z"/>
			<g>
				
					<linearGradient id="SVGID_00000093177608299424687350000007099090390835850129_" gradientUnits="userSpaceOnUse" x1="1096.9025" y1="37.7442" x2="1083.8759" y2="51.7325" gradientTransform="matrix(-1.000000e-02 -0.9999 0.9999 -1.000000e-02 991.4991 1609.2209)">
					<stop  offset="0" style="stop-color:#99A2B0"/>
					<stop  offset="1" style="stop-color:#EAEBEC"/>
				</linearGradient>
				<path style="fill:url(#SVGID_00000093177608299424687350000007099090390835850129_);" d="M1025.3,509.1c5.3,0,9.6,4.2,9.6,9.4
					c0.1,5.3-4.2,9.6-9.4,9.6c-5.3,0-9.6-4.2-9.6-9.4C1015.9,513.4,1020.1,509.1,1025.3,509.1z"/>
				
					<radialGradient id="SVGID_00000080175238934562588260000014448252802526686377_" cx="1087.5344" cy="610.3821" r="9.5074" gradientTransform="matrix(0.903 0.4297 -0.4297 0.903 305.658 -499.914)" gradientUnits="userSpaceOnUse">
					<stop  offset="0.8297" style="stop-color:#575560"/>
					<stop  offset="0.8351" style="stop-color:#615F69"/>
					<stop  offset="0.8646" style="stop-color:#918F97"/>
					<stop  offset="0.8938" style="stop-color:#B8B7BC"/>
					<stop  offset="0.9224" style="stop-color:#D7D7D9"/>
					<stop  offset="0.95" style="stop-color:#EDEDEE"/>
					<stop  offset="0.9764" style="stop-color:#FAFAFB"/>
					<stop  offset="1" style="stop-color:#FFFFFF"/>
				</radialGradient>
				<path style="fill:url(#SVGID_00000080175238934562588260000014448252802526686377_);" d="M1015.9,518.7c0.1,5.3,4.4,9.5,9.6,9.4
					c5.2-0.1,9.5-4.3,9.4-9.6c0-5.3-4.3-9.5-9.6-9.4C1020.1,509.1,1015.9,513.4,1015.9,518.7z M1032.5,518.5c0,3.9-3.1,7.1-7,7.1
					c-3.9,0-7.1-3.1-7.1-7c0-3.9,3.1-7.1,7-7.1C1029.2,511.5,1032.4,514.6,1032.5,518.5z"/>
				
					<radialGradient id="SVGID_00000142166818970944001060000000047770468106615724_" cx="846.9496" cy="840.391" r="7.0636" gradientTransform="matrix(0.5303 0.8478 -0.8478 0.5303 1288.7622 -645.1255)" gradientUnits="userSpaceOnUse">
					<stop  offset="0.5584" style="stop-color:#65738A"/>
					<stop  offset="0.7885" style="stop-color:#647288"/>
					<stop  offset="0.8714" style="stop-color:#626D81"/>
					<stop  offset="0.9305" style="stop-color:#5D6476"/>
					<stop  offset="0.978" style="stop-color:#565765"/>
					<stop  offset="1" style="stop-color:#524F5A"/>
				</radialGradient>
				<path style="fill:url(#SVGID_00000142166818970944001060000000047770468106615724_);" d="M1029.2,524.6
					c-3.3,2.1-7.7,1.1-9.7-2.2c-2.1-3.3-1.1-7.7,2.2-9.7c3.3-2.1,7.7-1.1,9.7,2.2C1033.5,518.1,1032.5,522.5,1029.2,524.6z"/>
				
					<radialGradient id="SVGID_00000023986074311400959120000007670629374611125904_" cx="842.6467" cy="837.7604" r="12.6041" gradientTransform="matrix(0.5303 0.8478 -0.8478 0.5303 1288.7622 -645.1255)" gradientUnits="userSpaceOnUse">
					<stop  offset="0" style="stop-color:#D5D8DB"/>
					<stop  offset="1" style="stop-color:#4B4955"/>
				</radialGradient>
				<path style="fill:url(#SVGID_00000023986074311400959120000007670629374611125904_);" d="M1031.1,513.3
					c-2.5-2.7-6.6-3.3-9.8-1.3c-3.2,2-4.4,5.9-3.1,9.3L1031.1,513.3z"/>
				
					<radialGradient id="SVGID_00000016793153173205116760000015190995403955772059_" cx="843.6948" cy="837.7598" r="12.282" gradientTransform="matrix(0.5303 0.8478 -0.8478 0.5303 1288.7622 -645.1255)" gradientUnits="userSpaceOnUse">
					<stop  offset="0" style="stop-color:#D5D8DB"/>
					<stop  offset="1" style="stop-color:#4B4955"/>
				</radialGradient>
				<path style="fill:url(#SVGID_00000016793153173205116760000015190995403955772059_);" d="M1032.6,515.9l-12.8,8
					c2.5,2.6,6.5,3.3,9.7,1.3C1032.7,523.2,1033.9,519.2,1032.6,515.9z"/>
				<polygon class="st54" points="1031.1,513.3 1030.7,513.9 1018.9,521.3 1018.2,521.3 				"/>
				<polygon class="st55" points="1032.6,515.9 1032,516 1020.2,523.3 1019.8,523.9 				"/>
			</g>
		</g>
	</g>
	<g id="Button_3_">
		<g>
			<path class="st0" d="M1042.8,431.3c0,57.8-46.9,104.6-104.6,104.6c-57.8,0-104.6-46.8-104.6-104.6c0-57.8,46.8-104.6,104.6-104.6
				C995.9,326.7,1042.8,373.5,1042.8,431.3z"/>
			<defs>
				<filter id="Adobe_OpacityMaskFilter" filterUnits="userSpaceOnUse" x="832.6" y="325.8" width="211.1" height="211.1">
					<feColorMatrix  type="matrix" values="1 0 0 0 0  0 1 0 0 0  0 0 1 0 0  0 0 0 1 0"/>
				</filter>
			</defs>
			
				<mask maskUnits="userSpaceOnUse" x="832.6" y="325.8" width="211.1" height="211.1" id="SVGID_00000049915616213303165560000001215275931805545627_">
				<g class="st77">
					
						<radialGradient id="SVGID_00000007391499243829269780000015441847314966741169_" cx="938.1438" cy="431.3327" r="105.5665" gradientUnits="userSpaceOnUse">
						<stop  offset="0.9717" style="stop-color:#000000"/>
						<stop  offset="0.9782" style="stop-color:#FFFFFF"/>
					</radialGradient>
					<path style="fill:url(#SVGID_00000007391499243829269780000015441847314966741169_);" d="M1043.7,431.3
						c0,58.3-47.3,105.6-105.6,105.6s-105.6-47.3-105.6-105.6c0-58.3,47.3-105.6,105.6-105.6S1043.7,373,1043.7,431.3z"/>
				</g>
			</mask>
			
				<linearGradient id="SVGID_00000142161792868799419760000010092008158267197067_" gradientUnits="userSpaceOnUse" x1="883.7991" y1="339.2731" x2="993.0564" y2="524.3583">
				<stop  offset="0" style="stop-color:#FFFFFF"/>
				<stop  offset="1" style="stop-color:#9AA5B5"/>
			</linearGradient>
			
				<path style="mask:url(#SVGID_00000049915616213303165560000001215275931805545627_);fill:url(#SVGID_00000142161792868799419760000010092008158267197067_);" d="
				M1043.7,431.3c0,58.3-47.3,105.6-105.6,105.6s-105.6-47.3-105.6-105.6c0-58.3,47.3-105.6,105.6-105.6S1043.7,373,1043.7,431.3z"
				/>
			<defs>
				
					<filter id="Adobe_OpacityMaskFilter_00000111895407904655417790000004621571679616170169_" filterUnits="userSpaceOnUse" x="846.1" y="339.3" width="184.1" height="184.1">
					<feColorMatrix  type="matrix" values="1 0 0 0 0  0 1 0 0 0  0 0 1 0 0  0 0 0 1 0"/>
				</filter>
			</defs>
			
				<mask maskUnits="userSpaceOnUse" x="846.1" y="339.3" width="184.1" height="184.1" id="SVGID_00000087402144218296609730000009289842624323903927_">
				<g style="filter:url(#Adobe_OpacityMaskFilter_00000111895407904655417790000004621571679616170169_);">
					
						<radialGradient id="SVGID_00000108305547757429445170000000810339847588084865_" cx="596.2" cy="235.8681" r="92.0436" gradientTransform="matrix(0.7918 0.6108 -0.6108 0.7918 610.1397 -119.584)" gradientUnits="userSpaceOnUse">
						<stop  offset="0.9932" style="stop-color:#FFFFFF"/>
						<stop  offset="1" style="stop-color:#000000"/>
					</radialGradient>
					<path style="fill:url(#SVGID_00000108305547757429445170000000810339847588084865_);" d="M1011,487.6
						c-31.1,40.2-88.9,47.7-129.1,16.7c-40.3-31.1-47.7-88.9-16.7-129.1c31.1-40.2,88.8-47.7,129.1-16.7
						C1034.6,389.5,1042.1,447.3,1011,487.6z"/>
				</g>
			</mask>
			
				<linearGradient id="SVGID_00000170973567227549792530000017264132898230285192_" gradientUnits="userSpaceOnUse" x1="504.156" y1="235.8681" x2="688.2439" y2="235.8681" gradientTransform="matrix(0.7918 0.6108 -0.6108 0.7918 610.1397 -119.584)">
				<stop  offset="0" style="stop-color:#A38D94"/>
				<stop  offset="0.4764" style="stop-color:#E4D9D6"/>
				<stop  offset="1" style="stop-color:#55515B"/>
			</linearGradient>
			
				<path style="mask:url(#SVGID_00000087402144218296609730000009289842624323903927_);fill:url(#SVGID_00000170973567227549792530000017264132898230285192_);" d="
				M1011,487.6c-31.1,40.2-88.9,47.7-129.1,16.7c-40.3-31.1-47.7-88.9-16.7-129.1c31.1-40.2,88.8-47.7,129.1-16.7
				C1034.6,389.5,1042.1,447.3,1011,487.6z"/>
		</g>
		<g class="st83">
			<path class="st84" d="M856,465.5c-17.7-37.3,2-91.9,41.1-113.4c12.5-6.8,25.5-9.9,40-9.9c27.7,0,55.7,12.5,73.4,37.7
				c25.2,36,47.9,100.5-19.6,138.3C927,554,879.8,515.7,856,465.5z"/>
			
				<radialGradient id="SVGID_00000146477523059622985660000000019428383737244601_" cx="942.4161" cy="437.231" r="93.8963" gradientUnits="userSpaceOnUse">
				<stop  offset="0.8821" style="stop-color:#F3F4F4"/>
				<stop  offset="1" style="stop-color:#FBFCFD"/>
			</radialGradient>
			<path style="opacity:4.761905e-02;fill:url(#SVGID_00000146477523059622985660000000019428383737244601_);" d="M897,352.3
				c12.5-6.8,25.6-9.9,40.1-9.9c27.8,0,56.1,12.6,73.6,37.9c24.6,35.5,47.7,99.9-19.8,137.9C927,554,879.6,515.4,856,465.5
				C838.4,428.3,857.8,373.7,897,352.3z"/>
			
				<radialGradient id="SVGID_00000125604944812945745780000013742856753653384636_" cx="942.3553" cy="437.2124" r="93.7852" gradientUnits="userSpaceOnUse">
				<stop  offset="0.8821" style="stop-color:#E7E8E9"/>
				<stop  offset="1" style="stop-color:#F6F8FA"/>
			</radialGradient>
			<path style="opacity:9.523810e-02;fill:url(#SVGID_00000125604944812945745780000013742856753653384636_);" d="M896.8,352.4
				c12.5-6.9,25.7-9.9,40.3-9.9c28,0,56.5,12.7,73.8,38c24.1,34.9,47.4,99.3-20.1,137.4c-63.7,36-111.4-2.8-134.8-52.3
				C838.6,428.5,857.7,373.9,896.8,352.4z"/>
			
				<radialGradient id="SVGID_00000059267699562459020330000000894701420949149080_" cx="942.2816" cy="437.1939" r="93.6677" gradientUnits="userSpaceOnUse">
				<stop  offset="0.8821" style="stop-color:#DCDDDE"/>
				<stop  offset="1" style="stop-color:#F2F5F8"/>
			</radialGradient>
			<path style="opacity:0.1429;fill:url(#SVGID_00000059267699562459020330000000894701420949149080_);" d="M896.6,352.5
				c12.5-6.9,25.8-10,40.4-9.9c28.2,0,56.8,12.9,74,38.1c23.5,34.4,47.2,98.6-20.3,136.9c-63.6,36.1-111.5-2.8-134.7-52.1
				C838.7,428.6,857.5,374,896.6,352.5z"/>
			
				<radialGradient id="SVGID_00000000913126767369316260000009788195917302205621_" cx="942.2172" cy="437.1753" r="93.555" gradientUnits="userSpaceOnUse">
				<stop  offset="0.8821" style="stop-color:#D0D1D3"/>
				<stop  offset="1" style="stop-color:#EDF1F6"/>
			</radialGradient>
			<path style="opacity:0.1905;fill:url(#SVGID_00000000913126767369316260000009788195917302205621_);" d="M896.4,352.7
				c12.5-6.9,25.9-10,40.6-10c28.4,0,57.2,13,74.3,38.3c22.9,33.9,47,98-20.5,136.5c-63.5,36.2-111.7-2.9-134.6-51.9
				C838.8,428.8,857.3,374.1,896.4,352.7z"/>
			
				<radialGradient id="SVGID_00000131326793140970013600000014573299322240962194_" cx="942.1533" cy="437.1567" r="93.4425" gradientUnits="userSpaceOnUse">
				<stop  offset="0.8821" style="stop-color:#C4C6C8"/>
				<stop  offset="1" style="stop-color:#E9EEF4"/>
			</radialGradient>
			<path style="opacity:0.2381;fill:url(#SVGID_00000131326793140970013600000014573299322240962194_);" d="M896.2,352.8
				c12.5-6.9,26-10,40.7-10c28.5,0.1,57.5,13.1,74.5,38.4c22.3,33.3,46.8,97.3-20.8,136c-63.4,36.4-111.8-3-134.6-51.7
				C838.9,428.9,857.1,374.2,896.2,352.8z"/>
			
				<radialGradient id="SVGID_00000124141345870333990880000001050193109426439312_" cx="942.0898" cy="437.1381" r="93.3304" gradientUnits="userSpaceOnUse">
				<stop  offset="0.8821" style="stop-color:#B8BABD"/>
				<stop  offset="1" style="stop-color:#E5EBF1"/>
			</radialGradient>
			<path style="opacity:0.2857;fill:url(#SVGID_00000124141345870333990880000001050193109426439312_);" d="M896,352.9
				c12.5-6.9,26.1-10,40.9-10c28.7,0.1,57.9,13.2,74.7,38.5c21.8,32.8,46.5,96.7-21,135.6c-63.3,36.5-112-3.1-134.5-51.5
				C839.1,429,856.9,374.3,896,352.9z"/>
			
				<radialGradient id="SVGID_00000117649641586029294910000001600979071663098789_" cx="942.0267" cy="437.1195" r="93.2185" gradientUnits="userSpaceOnUse">
				<stop  offset="0.8821" style="stop-color:#ADAFB2"/>
				<stop  offset="1" style="stop-color:#E0E7EF"/>
			</radialGradient>
			<path style="opacity:0.3333;fill:url(#SVGID_00000117649641586029294910000001600979071663098789_);" d="M895.8,353.1
				c12.5-6.9,26.2-10,41-10c28.9,0.1,58.2,13.3,75,38.7c21.2,32.2,46.3,96.1-21.2,135.1c-63.3,36.6-112.1-3.1-134.5-51.3
				C839.2,429.2,856.8,374.5,895.8,353.1z"/>
			
				<radialGradient id="SVGID_00000163067897029682752170000013174603039601949319_" cx="941.9641" cy="437.1009" r="93.1069" gradientUnits="userSpaceOnUse">
				<stop  offset="0.8821" style="stop-color:#A1A4A7"/>
				<stop  offset="1" style="stop-color:#DCE4ED"/>
			</radialGradient>
			<path style="opacity:0.381;fill:url(#SVGID_00000163067897029682752170000013174603039601949319_);" d="M895.6,353.2
				c12.6-6.9,26.3-10,41.2-10c29.1,0.1,58.6,13.4,75.2,38.8c20.7,31.7,46.1,95.4-21.4,134.7c-63.2,36.7-112.3-3.2-134.4-51.1
				C839.3,429.3,856.6,374.6,895.6,353.2z"/>
			
				<radialGradient id="SVGID_00000018235872112392615880000008813444967494825101_" cx="941.9019" cy="437.0823" r="92.9955" gradientUnits="userSpaceOnUse">
				<stop  offset="0.8821" style="stop-color:#95989C"/>
				<stop  offset="1" style="stop-color:#D8E1EA"/>
			</radialGradient>
			<path style="opacity:0.4286;fill:url(#SVGID_00000018235872112392615880000008813444967494825101_);" d="M895.4,353.3
				c12.6-6.9,26.5-10.1,41.3-10c29.2,0.1,59,13.5,75.4,38.9c20.1,31.1,45.8,94.8-21.7,134.2c-63.1,36.8-112.4-3.3-134.4-50.9
				C839.4,429.5,856.4,374.7,895.4,353.3z"/>
			
				<radialGradient id="SVGID_00000171714710159352833440000016892594125260529822_" cx="941.84" cy="437.0637" r="92.8845" gradientUnits="userSpaceOnUse">
				<stop  offset="0.8821" style="stop-color:#898D91"/>
				<stop  offset="1" style="stop-color:#D3DDE8"/>
			</radialGradient>
			<path style="opacity:0.4762;fill:url(#SVGID_00000171714710159352833440000016892594125260529822_);" d="M895.2,353.5
				c12.6-6.9,26.6-10.1,41.5-10c29.4,0.1,59.3,13.6,75.6,39.1c19.6,30.6,45.6,94.2-21.9,133.8c-63,36.9-112.6-3.4-134.3-50.7
				C839.5,429.6,856.2,374.8,895.2,353.5z"/>
			
				<radialGradient id="SVGID_00000111166894488621026540000001422346231306666136_" cx="941.7787" cy="437.0451" r="92.7738" gradientUnits="userSpaceOnUse">
				<stop  offset="0.8821" style="stop-color:#7E8185"/>
				<stop  offset="1" style="stop-color:#CFDAE6"/>
			</radialGradient>
			<path style="opacity:0.5238;fill:url(#SVGID_00000111166894488621026540000001422346231306666136_);" d="M895,353.6
				c12.6-6.9,26.7-10.1,41.6-10c29.6,0.1,59.7,13.7,75.9,39.2c19,30,45.4,93.5-22.1,133.3c-62.9,37.1-112.7-3.5-134.3-50.5
				C839.7,429.8,856,374.9,895,353.6z"/>
			
				<radialGradient id="SVGID_00000063620070211568801660000006973812737564703650_" cx="941.7178" cy="437.0265" r="92.6633" gradientUnits="userSpaceOnUse">
				<stop  offset="0.8821" style="stop-color:#72767A"/>
				<stop  offset="1" style="stop-color:#CAD6E4"/>
			</radialGradient>
			<path style="opacity:0.5714;fill:url(#SVGID_00000063620070211568801660000006973812737564703650_);" d="M894.8,353.7
				c12.6-6.9,26.8-10.1,41.8-10c29.8,0.1,60.1,13.8,76.1,39.4c18.5,29.5,45.1,92.9-22.3,132.8c-62.8,37.2-112.9-3.5-134.2-50.3
				C839.8,429.9,855.8,375.1,894.8,353.7z"/>
			
				<radialGradient id="SVGID_00000103238305503145488000000007832022406878998145_" cx="941.6573" cy="437.0078" r="92.5532" gradientUnits="userSpaceOnUse">
				<stop  offset="0.8821" style="stop-color:#666A6F"/>
				<stop  offset="1" style="stop-color:#C6D3E1"/>
			</radialGradient>
			<path style="opacity:0.619;fill:url(#SVGID_00000103238305503145488000000007832022406878998145_);" d="M894.6,353.8
				c12.6-6.9,26.9-10.1,41.9-10c29.9,0.1,60.5,13.9,76.3,39.5c18,28.9,44.9,92.2-22.6,132.4c-62.7,37.3-113-3.6-134.2-50.1
				C839.9,430,855.7,375.2,894.6,353.8z"/>
			
				<radialGradient id="SVGID_00000080886974129397977850000006949964206383084212_" cx="941.5974" cy="436.9892" r="92.4433" gradientUnits="userSpaceOnUse">
				<stop  offset="0.8821" style="stop-color:#5A5F64"/>
				<stop  offset="1" style="stop-color:#C2D0DF"/>
			</radialGradient>
			<path style="opacity:0.6667;fill:url(#SVGID_00000080886974129397977850000006949964206383084212_);" d="M894.4,354
				c12.6-6.9,27-10.1,42-10.1c30.1,0.2,60.8,14,76.5,39.6c17.4,28.4,44.7,91.6-22.8,131.9c-62.6,37.4-113.2-3.7-134.1-49.9
				C840,430.2,855.5,375.3,894.4,354z"/>
			
				<radialGradient id="SVGID_00000072988568002494250970000004220722702619819413_" cx="941.5378" cy="436.9706" r="92.3338" gradientUnits="userSpaceOnUse">
				<stop  offset="0.8821" style="stop-color:#4F5459"/>
				<stop  offset="1" style="stop-color:#BDCCDD"/>
			</radialGradient>
			<path style="opacity:0.7143;fill:url(#SVGID_00000072988568002494250970000004220722702619819413_);" d="M894.2,354.1
				c12.6-6.9,27.1-10.1,42.2-10.1c30.3,0.2,61.2,14.1,76.8,39.8c16.9,27.8,44.5,91-23,131.5c-62.5,37.5-113.3-3.8-134.1-49.7
				C840.1,430.3,855.3,375.4,894.2,354.1z"/>
			
				<radialGradient id="SVGID_00000018222406967218411800000010022711765379707553_" cx="941.4788" cy="436.9519" r="92.2246" gradientUnits="userSpaceOnUse">
				<stop  offset="0.8821" style="stop-color:#43484E"/>
				<stop  offset="1" style="stop-color:#B9C9DA"/>
			</radialGradient>
			<path style="opacity:0.7619;fill:url(#SVGID_00000018222406967218411800000010022711765379707553_);" d="M894,354.2
				c12.6-6.9,27.2-10.2,42.3-10.1c30.5,0.2,61.6,14.2,77,39.9c16.4,27.3,44.2,90.3-23.2,131c-62.4,37.6-113.5-3.8-134-49.5
				C840.3,430.5,855.1,375.5,894,354.2z"/>
			
				<radialGradient id="SVGID_00000092444120891843572540000007316106644045285819_" cx="941.4201" cy="436.9332" r="92.1157" gradientUnits="userSpaceOnUse">
				<stop  offset="0.8821" style="stop-color:#373D43"/>
				<stop  offset="1" style="stop-color:#B5C6D8"/>
			</radialGradient>
			<path style="opacity:0.8095;fill:url(#SVGID_00000092444120891843572540000007316106644045285819_);" d="M893.8,354.4
				c12.7-6.9,27.3-10.2,42.5-10.1c30.6,0.2,62,14.3,77.2,40c15.8,26.7,44,89.7-23.5,130.6c-62.3,37.8-113.6-3.9-134-49.3
				C840.4,430.6,854.9,375.7,893.8,354.4z"/>
			
				<radialGradient id="SVGID_00000121957960111052757040000015552794167451053719_" cx="941.362" cy="436.9146" r="92.0072" gradientUnits="userSpaceOnUse">
				<stop  offset="0.8821" style="stop-color:#2B3138"/>
				<stop  offset="1" style="stop-color:#B0C2D6"/>
			</radialGradient>
			<path style="opacity:0.8571;fill:url(#SVGID_00000121957960111052757040000015552794167451053719_);" d="M893.6,354.5
				c12.7-7,27.4-10.2,42.6-10.1c30.8,0.2,62.4,14.4,77.5,40.2c15.3,26.1,43.8,89.1-23.7,130.1c-62.2,37.9-113.8-4-133.9-49.1
				C840.5,430.7,854.7,375.8,893.6,354.5z"/>
			
				<radialGradient id="SVGID_00000005236613844837966920000009125069121555584655_" cx="941.3043" cy="436.8959" r="91.899" gradientUnits="userSpaceOnUse">
				<stop  offset="0.8821" style="stop-color:#20262D"/>
				<stop  offset="1" style="stop-color:#ACBFD4"/>
			</radialGradient>
			<path style="opacity:0.9048;fill:url(#SVGID_00000005236613844837966920000009125069121555584655_);" d="M893.4,354.6
				c12.7-7,27.6-10.2,42.8-10.1c31,0.2,62.8,14.5,77.7,40.3c14.8,25.6,43.5,88.4-23.9,129.7c-62.2,38-113.9-4.1-133.9-48.9
				C840.6,430.9,854.6,375.9,893.4,354.6z"/>
			
				<radialGradient id="SVGID_00000126286400872701260350000011139901267642463900_" cx="941.2528" cy="436.8772" r="91.7939" gradientUnits="userSpaceOnUse">
				<stop  offset="0.8821" style="stop-color:#141A22"/>
				<stop  offset="1" style="stop-color:#A7BBD1"/>
			</radialGradient>
			<path style="opacity:0.9524;fill:url(#SVGID_00000126286400872701260350000011139901267642463900_);" d="M893.2,354.8
				c12.7-7,27.7-10.2,42.9-10.1c31.2,0.2,63.2,14.6,77.9,40.4c14.3,25,43.3,87.8-24.2,129.2c-62.1,38.1-114.1-4.2-133.8-48.7
				C840.8,431,854.4,376,893.2,354.8z"/>
			
				<radialGradient id="SVGID_00000086663605502499675150000006323331598043703484_" cx="941.191" cy="436.8586" r="91.6838" gradientUnits="userSpaceOnUse">
				<stop  offset="0.8821" style="stop-color:#080F17"/>
				<stop  offset="1" style="stop-color:#A3B8CF"/>
			</radialGradient>
			<path style="fill:url(#SVGID_00000086663605502499675150000006323331598043703484_);" d="M1014.2,385.3
				c13.8,24.4,43.1,87.1-24.4,128.7c-62,38.2-114.2-4.2-133.8-48.5c-15.2-34.4-1.8-89.4,36.9-110.7
				C931.7,333.6,992.5,346.8,1014.2,385.3z"/>
		</g>
		<defs>
			
				<filter id="Adobe_OpacityMaskFilter_00000168818757661648193310000016628204178065312662_" filterUnits="userSpaceOnUse" x="801.8" y="288.9" width="247.2" height="247.2">
				<feColorMatrix  type="matrix" values="1 0 0 0 0  0 1 0 0 0  0 0 1 0 0  0 0 0 1 0"/>
			</filter>
		</defs>
		
			<mask maskUnits="userSpaceOnUse" x="801.8" y="288.9" width="247.2" height="247.2" id="SVGID_00000109030117378619858140000009860085573219127475_">
			<g style="filter:url(#Adobe_OpacityMaskFilter_00000168818757661648193310000016628204178065312662_);">
				<path class="st0" d="M1043.7,431.3c0,58.3-47.3,105.6-105.6,105.6s-105.6-47.3-105.6-105.6c0-58.3,47.3-105.6,105.6-105.6
					S1043.7,373,1043.7,431.3z"/>
			</g>
		</mask>
		
			<radialGradient id="SVGID_00000025424989310206605120000004701482612740598946_" cx="925.4226" cy="412.5421" r="123.6055" gradientUnits="userSpaceOnUse">
			<stop  offset="0.2872" style="stop-color:#43CC00"/>
			<stop  offset="1" style="stop-color:#808080"/>
		</radialGradient>
		
			<path style="opacity:0.2;mask:url(#SVGID_00000109030117378619858140000009860085573219127475_);fill:url(#SVGID_00000025424989310206605120000004701482612740598946_);" d="
			M1049,412.5c0,68.3-55.3,123.6-123.6,123.6c-68.3,0-123.6-55.3-123.6-123.6c0-68.3,55.3-123.6,123.6-123.6
			C993.7,288.9,1049,344.3,1049,412.5z"/>
		<g>
			
				<linearGradient id="SVGID_00000047059224132056289680000005208317527607953282_" gradientUnits="userSpaceOnUse" x1="903.9277" y1="351.4982" x2="972.8867" y2="512.4025">
				<stop  offset="0" style="stop-color:#E2FF00"/>
				<stop  offset="0.2162" style="stop-color:#BAFE00"/>
				<stop  offset="0.5169" style="stop-color:#4BB902"/>
				<stop  offset="1" style="stop-color:#449A01"/>
			</linearGradient>
			<path style="fill:url(#SVGID_00000047059224132056289680000005208317527607953282_);" d="M1027.2,431.3
				c0,49.2-39.9,89.1-89.1,89.1c-49.2,0-89.1-39.9-89.1-89.1c0-49.2,39.9-89.1,89.1-89.1C987.3,342.2,1027.2,382.1,1027.2,431.3z"/>
			<defs>
				
					<filter id="Adobe_OpacityMaskFilter_00000097496036749841081290000014809122062383820678_" filterUnits="userSpaceOnUse" x="849" y="342.2" width="178.2" height="178.2">
					<feColorMatrix  type="matrix" values="1 0 0 0 0  0 1 0 0 0  0 0 1 0 0  0 0 0 1 0"/>
				</filter>
			</defs>
			
				<mask maskUnits="userSpaceOnUse" x="849" y="342.2" width="178.2" height="178.2" id="SVGID_00000135662579068251237070000015651282102813404046_">
				<g style="filter:url(#Adobe_OpacityMaskFilter_00000097496036749841081290000014809122062383820678_);">
					
						<radialGradient id="SVGID_00000157268695476983546300000000144412045988011400_" cx="938.1438" cy="431.3319" r="89.0944" gradientUnits="userSpaceOnUse">
						<stop  offset="0.7534" style="stop-color:#000000"/>
						<stop  offset="1" style="stop-color:#FFFFFF"/>
					</radialGradient>
					<path style="fill:url(#SVGID_00000157268695476983546300000000144412045988011400_);" d="M1027.2,431.3
						c0,49.2-39.9,89.1-89.1,89.1c-49.2,0-89.1-39.9-89.1-89.1c0-49.2,39.9-89.1,89.1-89.1C987.3,342.2,1027.2,382.1,1027.2,431.3z"
						/>
				</g>
			</mask>
			
				<linearGradient id="SVGID_00000016034725017804386540000017373140841629336736_" gradientUnits="userSpaceOnUse" x1="903.9277" y1="351.4982" x2="972.8867" y2="512.4025">
				<stop  offset="0" style="stop-color:#6FDB00"/>
				<stop  offset="0.5169" style="stop-color:#4CAF00"/>
				<stop  offset="1" style="stop-color:#4E791F"/>
			</linearGradient>
			
				<path style="mask:url(#SVGID_00000135662579068251237070000015651282102813404046_);fill:url(#SVGID_00000016034725017804386540000017373140841629336736_);" d="
				M1027.2,431.3c0,49.2-39.9,89.1-89.1,89.1c-49.2,0-89.1-39.9-89.1-89.1c0-49.2,39.9-89.1,89.1-89.1
				C987.3,342.2,1027.2,382.1,1027.2,431.3z"/>
			<image style="overflow:visible;" width="132" height="132" xlink:href="B994434B.png"  transform="matrix(1 0 0 1 872 365)">
			</image>
			<defs>
				
					<filter id="Adobe_OpacityMaskFilter_00000135663749556994058400000011586354945403925424_" filterUnits="userSpaceOnUse" x="876.8" y="370" width="122.8" height="122.8">
					<feColorMatrix  type="matrix" values="1 0 0 0 0  0 1 0 0 0  0 0 1 0 0  0 0 0 1 0"/>
				</filter>
			</defs>
			
				<mask maskUnits="userSpaceOnUse" x="876.8" y="370" width="122.8" height="122.8" id="SVGID_00000052783428145968786990000003877633030110481035_">
				<g style="filter:url(#Adobe_OpacityMaskFilter_00000135663749556994058400000011586354945403925424_);">
					
						<radialGradient id="SVGID_00000052072137071832510200000013104185179794292664_" cx="938.1438" cy="431.3343" r="61.3791" gradientUnits="userSpaceOnUse">
						<stop  offset="0.8953" style="stop-color:#FFFFFF"/>
						<stop  offset="1" style="stop-color:#000000"/>
					</radialGradient>
					<path style="fill:url(#SVGID_00000052072137071832510200000013104185179794292664_);" d="M999.5,431.3
						c0,33.9-27.5,61.4-61.4,61.4c-33.9,0-61.4-27.5-61.4-61.4c0-33.9,27.5-61.4,61.4-61.4C972,370,999.5,397.4,999.5,431.3z"/>
				</g>
			</mask>
			
				<linearGradient id="SVGID_00000062891324480072638270000009203982556590439843_" gradientUnits="userSpaceOnUse" x1="914.5722" y1="376.3353" x2="962.0795" y2="487.1857">
				<stop  offset="0" style="stop-color:#41BB02"/>
				<stop  offset="1" style="stop-color:#8AE700"/>
			</linearGradient>
			
				<path style="mask:url(#SVGID_00000052783428145968786990000003877633030110481035_);fill:url(#SVGID_00000062891324480072638270000009203982556590439843_);" d="
				M999.5,431.3c0,33.9-27.5,61.4-61.4,61.4c-33.9,0-61.4-27.5-61.4-61.4c0-33.9,27.5-61.4,61.4-61.4
				C972,370,999.5,397.4,999.5,431.3z"/>
		</g>
	</g>
</g>
<text transform="matrix(1 0 0 1 889.6348 430.0771)"><tspan x="0" y="0" class="st0 st115 st116">SWITCH</tspan><tspan x="12.8" y="26.4" class="st0 st115 st116">MODE</tspan></text>
</svg>